# Blender v2.78 (sub 0) OBJ File: ''
# www.blender.org
o aTorus.014_Cylinder.026
v 0.035481 0.739093 -0.059754
v -0.033094 0.739093 -0.059754
v 0.035481 0.740201 -0.060240
v -0.033094 0.740201 -0.060240
v 0.035481 0.741202 -0.060897
v -0.033094 0.741202 -0.060897
v 0.035481 0.742056 -0.061699
v -0.033094 0.742056 -0.061699
v 0.035481 0.742732 -0.062615
v -0.033094 0.742732 -0.062615
v 0.035481 0.743246 -0.063486
v -0.033094 0.743246 -0.063486
v 0.035481 0.743493 -0.064522
v -0.033094 0.743493 -0.064522
v 0.035481 0.743509 -0.065560
v -0.033094 0.743509 -0.065560
v 0.035481 0.743292 -0.066558
v -0.033094 0.743292 -0.066558
v 0.035481 0.742849 -0.067479
v -0.033094 0.742849 -0.067479
v 0.035481 0.742200 -0.068287
v -0.033094 0.742200 -0.068287
v 0.035481 0.741367 -0.068952
v -0.033094 0.741367 -0.068952
v 0.035481 0.740384 -0.069447
v -0.033094 0.740384 -0.069447
v 0.035481 0.739288 -0.069755
v -0.033094 0.739288 -0.069755
v 0.035481 0.738121 -0.069862
v -0.033094 0.738121 -0.069862
v 0.035481 0.736928 -0.069765
v -0.033094 0.736928 -0.069765
v 0.035481 0.735755 -0.069467
v -0.033094 0.735755 -0.069467
v 0.035481 0.734647 -0.068981
v -0.033094 0.734647 -0.068981
v 0.035481 0.733646 -0.068324
v -0.033094 0.733646 -0.068324
v 0.035481 0.732792 -0.067522
v -0.033094 0.732792 -0.067522
v 0.035481 0.732116 -0.066606
v -0.033094 0.732116 -0.066606
v 0.035481 0.731645 -0.065611
v -0.033094 0.731645 -0.065611
v 0.035481 0.731397 -0.064574
v -0.033094 0.731397 -0.064574
v 0.035481 0.731382 -0.063537
v -0.033094 0.731382 -0.063537
v 0.035481 0.731599 -0.062539
v -0.033094 0.731599 -0.062539
v 0.035481 0.732041 -0.061618
v -0.033094 0.732041 -0.061618
v 0.035481 0.732691 -0.060810
v -0.033094 0.732691 -0.060810
v 0.035481 0.733524 -0.060145
v -0.033094 0.733524 -0.060145
v 0.035481 0.734464 -0.059773
v -0.033094 0.734464 -0.059773
v 0.035481 0.735560 -0.059466
v -0.033094 0.735560 -0.059466
v 0.035481 0.736727 -0.059359
v -0.033094 0.736727 -0.059359
v 0.035481 0.737920 -0.059456
v -0.033094 0.737920 -0.059456
v 0.018388 0.739277 -0.035747
v -0.017966 0.739277 -0.035747
v 0.018388 0.741274 -0.036624
v -0.017966 0.741274 -0.036624
v 0.018388 0.743078 -0.037808
v -0.017966 0.743078 -0.037808
v 0.018388 0.744618 -0.039254
v -0.017966 0.744618 -0.039254
v 0.018388 0.745836 -0.040905
v -0.017966 0.745836 -0.040905
v 0.018388 0.740134 -0.061763
v -0.017966 0.740134 -0.061763
v 0.018388 0.740581 -0.063630
v -0.017966 0.740581 -0.063630
v 0.018388 0.740609 -0.065500
v -0.017966 0.740609 -0.065500
v 0.018388 0.740217 -0.067299
v -0.017966 0.740217 -0.067299
v 0.018388 0.739420 -0.068960
v -0.017966 0.739420 -0.068960
v 0.018388 0.738248 -0.070417
v -0.017966 0.738248 -0.070417
v 0.018388 0.736748 -0.071615
v -0.017966 0.736748 -0.071615
v 0.018388 0.734975 -0.072508
v -0.017966 0.734975 -0.072508
v 0.018388 0.732999 -0.073062
v -0.017966 0.732999 -0.073062
v 0.018388 0.730895 -0.073255
v -0.017966 0.730895 -0.073255
v 0.018388 0.728745 -0.073081
v -0.017966 0.728745 -0.073081
v 0.018388 0.726630 -0.072544
v -0.017966 0.726630 -0.072544
v 0.018388 0.724633 -0.071667
v -0.017966 0.724633 -0.071667
v 0.018388 0.722829 -0.070483
v -0.017966 0.722829 -0.070483
v 0.018388 0.721289 -0.069038
v -0.017966 0.721289 -0.069038
v 0.018388 0.720071 -0.067386
v -0.017966 0.720071 -0.067386
v 0.018388 0.719222 -0.065592
v -0.017966 0.719222 -0.065592
v 0.018388 0.718775 -0.063724
v -0.017966 0.718775 -0.063724
v 0.018388 0.718747 -0.061855
v -0.017966 0.718747 -0.061855
v 0.018388 0.719139 -0.060055
v -0.017966 0.719139 -0.060055
v 0.018388 0.719936 -0.058395
v -0.017966 0.719936 -0.058395
v 0.018388 0.721107 -0.056938
v -0.017966 0.721107 -0.056938
v 0.018388 0.722608 -0.055739
v -0.017966 0.722608 -0.055739
v 0.018388 0.730932 -0.035783
v -0.017966 0.730932 -0.035783
v 0.018388 0.732908 -0.035229
v -0.017966 0.732908 -0.035229
v 0.018388 0.735012 -0.035036
v -0.017966 0.735012 -0.035036
v 0.018388 0.737162 -0.035211
v -0.017966 0.737162 -0.035211
vt 0.7291 0.6535
vt 0.7179 0.0000
vt 0.7291 0.0000
vt 0.7179 0.6535
vt 0.7069 0.0000
vt 0.7069 0.6535
vt 0.6966 0.0000
vt 0.6966 0.6535
vt 0.6872 0.0000
vt 0.6872 0.6535
vt 0.6794 0.0000
vt 1.0000 0.6535
vt 0.9901 0.0000
vt 1.0000 0.0000
vt 0.9901 0.6535
vt 0.9793 0.0000
vt 0.9793 0.6535
vt 0.9682 0.0000
vt 0.9682 0.6535
vt 0.9570 0.0000
vt 0.9570 0.6535
vt 0.9463 0.0000
vt 0.9463 0.6535
vt 0.9364 0.0000
vt 0.9364 0.6535
vt 0.9278 0.0000
vt 0.8483 0.6535
vt 0.8404 0.0000
vt 0.8483 0.0000
vt 0.8404 0.6535
vt 0.8310 0.0000
vt 0.8310 0.6535
vt 0.8207 0.0000
vt 0.8207 0.6535
vt 0.8097 0.0000
vt 0.8097 0.6535
vt 0.7985 0.0000
vt 0.7985 0.6535
vt 0.7875 0.0000
vt 0.7875 0.6535
vt 0.7771 0.0000
vt 0.7771 0.6535
vt 0.7678 0.0000
vt 0.9278 0.6535
vt 0.9191 0.0000
vt 0.9278 0.0000
vt 0.9191 0.6535
vt 0.9093 0.0000
vt 0.9093 0.6535
vt 0.8985 0.0000
vt 0.8985 0.6535
vt 0.8874 0.0000
vt 0.8874 0.6535
vt 0.8762 0.0000
vt 0.8762 0.6535
vt 0.8655 0.0000
vt 0.8655 0.6535
vt 0.8556 0.0000
vt 0.8556 0.6535
vt 0.8483 0.0000
vt 0.7678 0.6535
vt 0.7598 0.0000
vt 0.7678 0.0000
vt 0.7598 0.6535
vt 0.7505 0.0000
vt 0.6476 0.5943
vt 0.5623 0.5768
vt 0.6556 0.5862
vt 0.7505 0.6535
vt 0.7401 0.0000
vt 0.7401 0.6535
vt 0.6618 0.4605
vt 0.5623 0.4604
vt 0.6661 0.4500
vt 0.7550 1.0000
vt 0.7348 0.6535
vt 0.7550 0.6535
vt 0.7348 1.0000
vt 0.7149 0.6535
vt 0.7149 1.0000
vt 0.6962 0.6535
vt 0.6962 1.0000
vt 0.6794 0.6535
vt 0.3397 0.3749
vt 0.6794 0.1328
vt 0.6794 0.3749
vt 0.3397 0.1328
vt 0.6794 0.1145
vt 0.3397 0.1145
vt 0.6794 0.0948
vt 0.3397 0.0948
vt 0.6794 0.0743
vt 0.3397 0.0743
vt 0.6794 0.0537
vt 0.3397 0.0537
vt 0.6794 0.0340
vt 0.3397 0.0340
vt 0.6794 0.0159
vt 0.3397 0.0159
vt 0.6794 0.0000
vt 0.4106 0.3749
vt 0.4249 0.7214
vt 0.4106 0.7214
vt 0.4249 0.3749
vt 0.4417 0.7214
vt 0.4604 0.3749
vt 0.4604 0.7214
vt 0.4803 0.7214
vt 0.4803 0.3749
vt 0.5005 0.7214
vt 0.5005 0.3749
vt 0.5203 0.7214
vt 0.5203 0.3749
vt 0.5390 0.7214
vt 0.5390 0.3749
vt 0.5558 0.7214
vt 0.0000 0.3749
vt 0.3397 0.3591
vt 0.3397 0.3749
vt 0.0000 0.3591
vt 0.3397 0.3409
vt 0.0000 0.3409
vt 0.3397 0.3212
vt 0.0000 0.3212
vt 0.3397 0.3007
vt 0.0000 0.3007
vt 0.3397 0.2802
vt 0.0000 0.2802
vt 0.3397 0.2604
vt 0.0000 0.2604
vt 0.3397 0.2422
vt 0.0000 0.2422
vt 0.3397 0.0000
vt 0.8246 1.0000
vt 0.8103 0.6535
vt 0.8246 0.6535
vt 0.8103 1.0000
vt 0.7935 0.6535
vt 0.1128 0.3749
vt 0.1824 0.5464
vt 0.0117 0.5292
vt 0.7935 1.0000
vt 0.7748 0.6535
vt 0.7748 1.0000
vt 0.2780 0.8054
vt 0.2593 0.7975
vt 0.2170 0.6551
vt 0.6794 0.6535
vt 0.9278 0.6535
vt 0.7678 0.6535
vt 0.8483 0.6535
vt 0.5580 0.5663
vt 0.5558 0.5550
vt 0.6661 0.5661
vt 0.5558 0.5436
vt 0.5580 0.5324
vt 0.6683 0.5435
vt 0.5623 0.5218
vt 0.5685 0.5123
vt 0.6661 0.5322
vt 0.5765 0.5042
vt 0.5843 0.4977
vt 0.5947 0.4933
vt 0.6057 0.4911
vt 0.6169 0.4911
vt 0.6279 0.4933
vt 0.6383 0.4977
vt 0.6476 0.5041
vt 0.6556 0.5122
vt 0.6618 0.5217
vt 0.6683 0.5549
vt 0.6618 0.5767
vt 0.6383 0.6006
vt 0.5685 0.5863
vt 0.6279 0.6050
vt 0.6169 0.6073
vt 0.6057 0.6073
vt 0.5947 0.6050
vt 0.5843 0.6006
vt 0.5750 0.5943
vt 0.5580 0.4498
vt 0.5558 0.4386
vt 0.6683 0.4273
vt 0.5558 0.4272
vt 0.5580 0.4159
vt 0.6661 0.4161
vt 0.5623 0.4054
vt 0.5685 0.3959
vt 0.6476 0.3879
vt 0.5750 0.3879
vt 0.5843 0.3816
vt 0.5947 0.3772
vt 0.6057 0.3749
vt 0.6169 0.3749
vt 0.6279 0.3772
vt 0.6383 0.3816
vt 0.6556 0.3960
vt 0.6618 0.4055
vt 0.6683 0.4387
vt 0.6556 0.4700
vt 0.5685 0.4699
vt 0.6476 0.4781
vt 0.6383 0.4845
vt 0.5765 0.4780
vt 0.6279 0.4889
vt 0.6169 0.4911
vt 0.6057 0.4911
vt 0.5947 0.4889
vt 0.5843 0.4845
vt 0.6794 1.0000
vt 0.3397 0.0000
vt 0.4417 0.3749
vt 0.5558 0.3749
vt 0.0000 0.0000
vt 0.1109 0.8054
vt 0.0910 0.8094
vt 0.1464 0.7860
vt 0.0708 0.8094
vt 0.0510 0.8054
vt 0.0012 0.7715
vt 0.0323 0.7975
vt 0.0155 0.7860
vt 0.0039 0.5102
vt 0.0117 0.4300
vt 0.1295 0.7975
vt 0.2014 0.5102
vt 0.1936 0.5292
vt 0.2014 0.4491
vt 0.0000 0.4899
vt 0.0000 0.4693
vt 0.0039 0.4491
vt 0.0229 0.4129
vt 0.0372 0.3983
vt 0.0540 0.3869
vt 0.0727 0.3790
vt 0.0925 0.3749
vt 0.1326 0.3790
vt 0.1513 0.3869
vt 0.1681 0.3983
vt 0.1824 0.4129
vt 0.1936 0.4300
vt 0.2053 0.4693
vt 0.2053 0.4900
vt 0.2563 0.3790
vt 0.2761 0.3749
vt 0.2065 0.4129
vt 0.2963 0.3749
vt 0.3162 0.3790
vt 0.3517 0.3983
vt 0.3349 0.3869
vt 0.3877 0.6380
vt 0.3989 0.6551
vt 0.4067 0.7353
vt 0.4067 0.6742
vt 0.4106 0.6944
vt 0.4106 0.7150
vt 0.3989 0.7543
vt 0.3877 0.7715
vt 0.3734 0.7860
vt 0.3566 0.7975
vt 0.3379 0.8054
vt 0.3181 0.8094
vt 0.2979 0.8094
vt 0.2425 0.7860
vt 0.2282 0.7715
vt 0.2170 0.7543
vt 0.2093 0.7353
vt 0.2053 0.7150
vt 0.2053 0.6944
vt 0.2093 0.6742
vt 0.2208 0.3983
vt 0.2376 0.3869
vn 0.0000 -0.4020 -0.9156
vn 0.0000 -0.5488 -0.8360
vn 0.0000 -0.6843 -0.7292
vn 0.0000 -0.8048 -0.5935
vn 0.0000 -0.8615 -0.5078
vn 0.0000 -0.9725 -0.2327
vn 0.0000 -0.9999 -0.0150
vn 0.0000 -0.9771 0.2128
vn 0.0000 -0.9015 0.4327
vn 0.0000 -0.7794 0.6265
vn 0.0000 -0.6240 0.7814
vn 0.0000 -0.4500 0.8930
vn 0.0000 -0.2699 0.9629
vn 0.0000 -0.0914 0.9958
vn 0.0000 0.0811 0.9967
vn 0.0000 0.2458 0.9693
vn 0.0000 0.4020 0.9156
vn 0.0000 0.5488 0.8360
vn 0.0000 0.6843 0.7292
vn 0.0000 0.8048 0.5935
vn 0.0000 0.9039 0.4277
vn 0.0000 0.9725 0.2327
vn 0.0000 0.9999 0.0151
vn 0.0000 0.9771 -0.2128
vn 0.0000 0.9015 -0.4327
vn 0.0000 0.7794 -0.6265
vn 0.0000 0.6240 -0.7814
vn 0.0000 0.3674 -0.9301
vn 0.0000 0.2699 -0.9629
vn 0.0000 0.0914 -0.9958
vn 1.0000 0.0000 0.0000
vn 0.0000 -0.0811 -0.9967
vn 0.0000 -0.2458 -0.9693
vn -1.0000 0.0000 0.0000
vn 0.0000 -0.5488 -0.8359
vn 0.0000 -0.8048 -0.5936
vn 0.0000 -0.9646 0.2637
vn 0.0000 -0.9725 -0.2328
vn 0.0000 -0.9771 0.2129
vn 0.0000 -0.9015 0.4328
vn 0.0000 -0.6239 0.7815
vn 0.0000 -0.0915 0.9958
vn 0.0000 0.8048 0.5936
vn 0.0000 0.9725 0.2328
vn 0.0000 0.9771 -0.2129
vn 0.0000 0.9015 -0.4328
vn 0.0000 0.6240 -0.7815
vn -0.0000 0.9229 -0.3850
vn -0.0000 0.0915 -0.9958
vn 0.0000 -0.8616 -0.5076
vn 0.0000 -0.9771 0.2130
vn 0.0000 -0.7795 0.6265
vn 0.0000 -0.4501 0.8930
vn 0.0000 0.6844 0.7291
vn 0.0000 0.9999 0.0150
vn 0.0000 0.9771 -0.2130
vn 0.0000 0.6239 -0.7815
vn 0.0000 0.3674 -0.9300
vn 0.0000 -0.9999 -0.0151
vn 0.0000 0.9039 0.4276
s off
f 2/1/1 3/2/1 1/3/1
f 4/4/2 5/5/2 3/2/2
f 6/6/3 7/7/3 5/5/3
f 8/8/4 9/9/4 7/7/4
f 10/10/5 11/11/5 9/9/5
f 12/12/6 13/13/6 11/14/6
f 14/15/7 15/16/7 13/13/7
f 16/17/8 17/18/8 15/16/8
f 18/19/9 19/20/9 17/18/9
f 20/21/10 21/22/10 19/20/10
f 22/23/11 23/24/11 21/22/11
f 24/25/12 25/26/12 23/24/12
f 26/27/13 27/28/13 25/29/13
f 28/30/14 29/31/14 27/28/14
f 30/32/15 31/33/15 29/31/15
f 32/34/16 33/35/16 31/33/16
f 34/36/17 35/37/17 33/35/17
f 36/38/18 37/39/18 35/37/18
f 38/40/19 39/41/19 37/39/19
f 40/42/20 41/43/20 39/41/20
f 42/44/21 43/45/21 41/46/21
f 44/47/22 45/48/22 43/45/22
f 46/49/23 47/50/23 45/48/23
f 48/51/24 49/52/24 47/50/24
f 50/53/25 51/54/25 49/52/25
f 52/55/26 53/56/26 51/54/26
f 54/57/27 55/58/27 53/56/27
f 56/59/28 57/60/28 55/58/28
f 58/61/29 59/62/29 57/63/29
f 60/64/30 61/65/30 59/62/30
f 26/66/31 8/67/31 28/68/31
f 62/69/32 63/70/32 61/65/32
f 64/71/33 1/3/33 63/70/33
f 39/72/34 61/73/34 37/74/34
f 66/75/1 67/76/1 65/77/1
f 68/78/35 69/79/35 67/76/35
f 70/80/3 71/81/3 69/79/3
f 72/82/36 73/83/36 71/81/36
f 74/84/37 75/85/37 73/86/37
f 76/87/38 77/88/38 75/85/38
f 78/89/7 79/90/7 77/88/7
f 80/91/39 81/92/39 79/90/39
f 82/93/40 83/94/40 81/92/40
f 84/95/10 85/96/10 83/94/10
f 86/97/41 87/98/41 85/96/41
f 88/99/12 89/100/12 87/98/12
f 90/101/13 91/102/13 89/103/13
f 92/104/42 93/105/42 91/102/42
f 93/105/15 96/106/15 95/107/15
f 96/106/16 97/108/16 95/107/16
f 98/109/17 99/110/17 97/108/17
f 100/111/18 101/112/18 99/110/18
f 102/113/19 103/114/19 101/112/19
f 104/115/43 105/116/43 103/114/43
f 106/117/21 107/118/21 105/119/21
f 108/120/44 109/121/44 107/118/44
f 110/122/23 111/123/23 109/121/23
f 112/124/45 113/125/45 111/123/45
f 114/126/46 115/127/46 113/125/46
f 116/128/26 117/129/26 115/127/26
f 118/130/47 119/131/47 117/129/47
f 120/132/48 121/133/48 119/131/48
f 122/134/29 123/135/29 121/136/29
f 124/137/49 125/138/49 123/135/49
f 98/139/31 76/140/31 120/141/31
f 126/142/32 127/143/32 125/138/32
f 128/144/33 65/77/33 127/143/33
f 101/145/34 103/146/34 119/147/34
f 2/1/1 4/4/1 3/2/1
f 4/4/35 6/6/35 5/5/35
f 6/6/3 8/8/3 7/7/3
f 8/8/4 10/10/4 9/9/4
f 10/10/50 12/148/50 11/11/50
f 12/12/38 14/15/38 13/13/38
f 14/15/7 16/17/7 15/16/7
f 16/17/51 18/19/51 17/18/51
f 18/19/40 20/21/40 19/20/40
f 20/21/52 22/23/52 21/22/52
f 22/23/41 24/25/41 23/24/41
f 24/25/53 26/149/53 25/26/53
f 26/27/13 28/30/13 27/28/13
f 28/30/42 30/32/42 29/31/42
f 30/32/15 32/34/15 31/33/15
f 32/34/16 34/36/16 33/35/16
f 34/36/17 36/38/17 35/37/17
f 36/38/18 38/40/18 37/39/18
f 38/40/54 40/42/54 39/41/54
f 40/42/20 42/150/20 41/43/20
f 42/44/21 44/47/21 43/45/21
f 44/47/44 46/49/44 45/48/44
f 46/49/55 48/51/55 47/50/55
f 48/51/56 50/53/56 49/52/56
f 50/53/46 52/55/46 51/54/46
f 52/55/26 54/57/26 53/56/26
f 54/57/57 56/59/57 55/58/57
f 56/59/58 58/151/58 57/60/58
f 58/61/29 60/64/29 59/62/29
f 60/64/30 62/69/30 61/65/30
f 6/152/31 4/153/31 32/154/31
f 2/155/31 64/156/31 36/157/31
f 62/158/31 60/159/31 38/160/31
f 58/161/31 56/162/31 54/163/31
f 54/163/31 52/164/31 58/161/31
f 50/165/31 48/166/31 58/161/31
f 46/167/31 44/168/31 58/161/31
f 42/169/31 40/170/31 58/161/31
f 38/160/31 36/157/31 64/156/31
f 34/171/31 32/154/31 4/153/31
f 30/172/31 28/68/31 6/152/31
f 26/66/31 24/173/31 10/174/31
f 22/175/31 20/176/31 10/174/31
f 18/177/31 16/178/31 10/174/31
f 14/179/31 12/180/31 10/174/31
f 10/174/31 8/67/31 26/66/31
f 4/153/31 2/155/31 34/171/31
f 60/159/31 40/170/31 38/160/31
f 52/164/31 50/165/31 58/161/31
f 44/168/31 42/169/31 58/161/31
f 36/157/31 34/171/31 2/155/31
f 28/68/31 8/67/31 6/152/31
f 20/176/31 18/177/31 10/174/31
f 14/179/31 10/174/31 16/178/31
f 64/156/31 62/158/31 38/160/31
f 48/166/31 46/167/31 58/161/31
f 32/154/31 30/172/31 6/152/31
f 22/175/31 10/174/31 24/173/31
f 58/161/31 40/170/31 60/159/31
f 62/69/32 64/71/32 63/70/32
f 64/71/33 2/1/33 1/3/33
f 63/181/34 1/182/34 33/183/34
f 3/184/34 5/185/34 31/186/34
f 7/187/34 9/188/34 25/189/34
f 11/190/34 13/191/34 9/188/34
f 15/192/34 17/193/34 19/194/34
f 19/194/34 21/195/34 9/188/34
f 23/196/34 25/189/34 9/188/34
f 27/197/34 29/198/34 7/187/34
f 31/186/34 33/183/34 1/182/34
f 35/199/34 37/74/34 63/181/34
f 39/72/34 41/200/34 59/201/34
f 43/202/34 45/203/34 57/204/34
f 47/205/34 49/206/34 51/207/34
f 51/207/34 53/208/34 57/204/34
f 55/209/34 57/204/34 53/208/34
f 59/201/34 61/73/34 39/72/34
f 1/182/34 3/184/34 31/186/34
f 9/188/34 13/191/34 15/192/34
f 15/192/34 19/194/34 9/188/34
f 25/189/34 27/197/34 7/187/34
f 33/183/34 35/199/34 63/181/34
f 41/200/34 57/204/34 59/201/34
f 47/205/34 51/207/34 57/204/34
f 57/204/34 45/203/34 47/205/34
f 5/185/34 29/198/34 31/186/34
f 21/195/34 23/196/34 9/188/34
f 37/74/34 61/73/34 63/181/34
f 57/204/34 41/200/34 43/202/34
f 7/187/34 29/198/34 5/185/34
f 66/75/1 68/78/1 67/76/1
f 68/78/2 70/80/2 69/79/2
f 70/80/3 72/82/3 71/81/3
f 72/82/4 74/210/4 73/83/4
f 74/84/37 76/87/37 75/85/37
f 76/87/38 78/89/38 77/88/38
f 78/89/59 80/91/59 79/90/59
f 80/91/8 82/93/8 81/92/8
f 82/93/9 84/95/9 83/94/9
f 84/95/10 86/97/10 85/96/10
f 86/97/11 88/99/11 87/98/11
f 88/99/53 90/211/53 89/100/53
f 90/101/13 92/104/13 91/102/13
f 92/104/42 94/212/42 93/105/42
f 93/105/15 94/212/15 96/106/15
f 96/106/16 98/109/16 97/108/16
f 98/109/17 100/111/17 99/110/17
f 100/111/18 102/113/18 101/112/18
f 102/113/19 104/115/19 103/114/19
f 104/115/20 106/213/20 105/116/20
f 106/117/60 108/120/60 107/118/60
f 108/120/22 110/122/22 109/121/22
f 110/122/55 112/124/55 111/123/55
f 112/124/24 114/126/24 113/125/24
f 114/126/46 116/128/46 115/127/46
f 116/128/26 118/130/26 117/129/26
f 118/130/57 120/132/57 119/131/57
f 120/132/48 122/214/48 121/133/48
f 122/134/29 124/137/29 123/135/29
f 124/137/49 126/142/49 125/138/49
f 70/215/31 68/216/31 74/217/31
f 66/218/31 128/219/31 122/220/31
f 126/221/31 124/222/31 122/220/31
f 120/141/31 118/223/31 110/224/31
f 126/221/31 122/220/31 128/219/31
f 68/216/31 66/218/31 74/217/31
f 74/217/31 72/225/31 70/215/31
f 80/226/31 78/227/31 86/228/31
f 76/140/31 74/217/31 120/141/31
f 66/218/31 122/220/31 74/217/31
f 118/223/31 116/229/31 110/224/31
f 114/230/31 112/231/31 110/224/31
f 110/224/31 108/232/31 120/141/31
f 106/233/31 104/234/31 120/141/31
f 102/235/31 100/236/31 120/141/31
f 98/139/31 96/237/31 76/140/31
f 94/238/31 92/239/31 76/140/31
f 90/240/31 88/241/31 76/140/31
f 86/228/31 84/242/31 82/243/31
f 82/243/31 80/226/31 86/228/31
f 74/217/31 122/220/31 120/141/31
f 116/229/31 114/230/31 110/224/31
f 108/232/31 106/233/31 120/141/31
f 100/236/31 98/139/31 120/141/31
f 92/239/31 90/240/31 76/140/31
f 86/228/31 78/227/31 76/140/31
f 76/140/31 96/237/31 94/238/31
f 104/234/31 102/235/31 120/141/31
f 88/241/31 86/228/31 76/140/31
f 126/142/32 128/144/32 127/143/32
f 128/144/33 66/75/33 65/77/33
f 127/244/34 65/245/34 121/246/34
f 67/247/34 69/248/34 73/249/34
f 71/250/34 73/249/34 69/248/34
f 75/251/34 77/252/34 85/253/34
f 79/254/34 81/255/34 83/256/34
f 83/256/34 85/253/34 77/252/34
f 87/257/34 89/258/34 75/251/34
f 91/259/34 93/260/34 75/251/34
f 95/261/34 97/262/34 75/251/34
f 99/263/34 101/145/34 119/147/34
f 103/146/34 105/264/34 119/147/34
f 107/265/34 109/266/34 119/147/34
f 111/267/34 113/268/34 115/269/34
f 115/269/34 117/270/34 111/267/34
f 119/147/34 121/246/34 73/249/34
f 123/271/34 125/272/34 121/246/34
f 65/245/34 67/247/34 73/249/34
f 77/252/34 79/254/34 83/256/34
f 127/244/34 121/246/34 125/272/34
f 121/246/34 65/245/34 73/249/34
f 111/267/34 117/270/34 109/266/34
f 105/264/34 107/265/34 119/147/34
f 97/262/34 99/263/34 119/147/34
f 89/258/34 91/259/34 75/251/34
f 75/251/34 85/253/34 87/257/34
f 119/147/34 73/249/34 75/251/34
f 109/266/34 117/270/34 119/147/34
f 93/260/34 95/261/34 75/251/34
f 119/147/34 75/251/34 97/262/34
