# Blender v2.78 (sub 0) OBJ File: ''
# www.blender.org
o aTorus.015_Cylinder.027
v 0.035481 0.713412 -0.053130
v -0.033094 0.713412 -0.053130
v 0.035481 0.714579 -0.053463
v -0.033094 0.714579 -0.053463
v 0.035481 0.715658 -0.054018
v -0.033094 0.715658 -0.054018
v 0.035481 0.716608 -0.054774
v -0.033094 0.716608 -0.054774
v 0.035481 0.717393 -0.055702
v -0.033094 0.717393 -0.055702
v 0.035481 0.718010 -0.056612
v -0.033094 0.718010 -0.056612
v 0.035481 0.718381 -0.057771
v -0.033094 0.718381 -0.057771
v 0.035481 0.718520 -0.058981
v -0.033094 0.718520 -0.058981
v 0.035481 0.718420 -0.060195
v -0.033094 0.718420 -0.060195
v 0.035481 0.718087 -0.061367
v -0.033094 0.718087 -0.061367
v 0.035481 0.717532 -0.062451
v -0.033094 0.717532 -0.062451
v 0.035481 0.716778 -0.063406
v -0.033094 0.716778 -0.063406
v 0.035481 0.715852 -0.064195
v -0.033094 0.715852 -0.064195
v 0.035481 0.714791 -0.064788
v -0.033094 0.714791 -0.064788
v 0.035481 0.713636 -0.065162
v -0.033094 0.713636 -0.065162
v 0.035481 0.712430 -0.065303
v -0.033094 0.712430 -0.065303
v 0.035481 0.711221 -0.065204
v -0.033094 0.711221 -0.065204
v 0.035481 0.710054 -0.064871
v -0.033094 0.710054 -0.064871
v 0.035481 0.708975 -0.064316
v -0.033094 0.708975 -0.064316
v 0.035481 0.708024 -0.063560
v -0.033094 0.708024 -0.063560
v 0.035481 0.707239 -0.062632
v -0.033094 0.707239 -0.062632
v 0.035481 0.706650 -0.061568
v -0.033094 0.706650 -0.061568
v 0.035481 0.706279 -0.060409
v -0.033094 0.706279 -0.060409
v 0.035481 0.706141 -0.059199
v -0.033094 0.706141 -0.059199
v 0.035481 0.706240 -0.057985
v -0.033094 0.706240 -0.057985
v 0.035481 0.706574 -0.056813
v -0.033094 0.706574 -0.056813
v 0.035481 0.707128 -0.055729
v -0.033094 0.707128 -0.055729
v 0.035481 0.707883 -0.054774
v -0.033094 0.707883 -0.054774
v 0.035481 0.708780 -0.054139
v -0.033094 0.708780 -0.054139
v 0.035481 0.709841 -0.053546
v -0.033094 0.709841 -0.053546
v 0.035481 0.710997 -0.053172
v -0.033094 0.710997 -0.053172
v 0.035481 0.712202 -0.053032
v -0.033094 0.712202 -0.053032
v 0.018388 0.710751 -0.025007
v -0.017966 0.710751 -0.025007
v 0.018388 0.712855 -0.025607
v -0.017966 0.712855 -0.025607
v 0.018388 0.714801 -0.026608
v -0.017966 0.714801 -0.026608
v 0.018388 0.716514 -0.027971
v -0.017966 0.716514 -0.027971
v 0.018388 0.717929 -0.029644
v -0.017966 0.717929 -0.029644
v 0.018388 0.714691 -0.055258
v -0.017966 0.714691 -0.055258
v 0.018388 0.715360 -0.057348
v -0.017966 0.715360 -0.057348
v 0.018388 0.715609 -0.059529
v -0.017966 0.715609 -0.059529
v 0.018388 0.715430 -0.061718
v -0.017966 0.715430 -0.061718
v 0.018388 0.714829 -0.063830
v -0.017966 0.714829 -0.063830
v 0.018388 0.713829 -0.065784
v -0.017966 0.713829 -0.065784
v 0.018388 0.712469 -0.067506
v -0.017966 0.712469 -0.067506
v 0.018388 0.710801 -0.068928
v -0.017966 0.710801 -0.068928
v 0.018388 0.708888 -0.069997
v -0.017966 0.708888 -0.069997
v 0.018388 0.706805 -0.070671
v -0.017966 0.706805 -0.070671
v 0.018388 0.704632 -0.070925
v -0.017966 0.704632 -0.070925
v 0.018388 0.702452 -0.070748
v -0.017966 0.702452 -0.070748
v 0.018388 0.700348 -0.070148
v -0.017966 0.700348 -0.070148
v 0.018388 0.698403 -0.069147
v -0.017966 0.698403 -0.069147
v 0.018388 0.696689 -0.067784
v -0.017966 0.696689 -0.067784
v 0.018388 0.695275 -0.066111
v -0.017966 0.695275 -0.066111
v 0.018388 0.694212 -0.064193
v -0.017966 0.694212 -0.064193
v 0.018388 0.693544 -0.062103
v -0.017966 0.693544 -0.062103
v 0.018388 0.693294 -0.059922
v -0.017966 0.693294 -0.059922
v 0.018388 0.693473 -0.057734
v -0.017966 0.693473 -0.057734
v 0.018388 0.694074 -0.055622
v -0.017966 0.694074 -0.055622
v 0.018388 0.695074 -0.053667
v -0.017966 0.695074 -0.053667
v 0.018388 0.696435 -0.051946
v -0.017966 0.696435 -0.051946
v 0.018388 0.702403 -0.026827
v -0.017966 0.702403 -0.026827
v 0.018388 0.704315 -0.025758
v -0.017966 0.704315 -0.025758
v 0.018388 0.706398 -0.025084
v -0.017966 0.706398 -0.025084
v 0.018388 0.708571 -0.024830
v -0.017966 0.708571 -0.024830
vt 0.7291 0.6535
vt 0.7179 0.0000
vt 0.7291 0.0000
vt 0.7179 0.6535
vt 0.7069 0.0000
vt 0.7069 0.6535
vt 0.6966 0.0000
vt 0.6966 0.6535
vt 0.6872 0.0000
vt 0.6872 0.6535
vt 0.6794 0.0000
vt 1.0000 0.6535
vt 0.9901 0.0000
vt 1.0000 0.0000
vt 0.9901 0.6535
vt 0.9793 0.0000
vt 0.9793 0.6535
vt 0.9682 0.0000
vt 0.9682 0.6535
vt 0.9570 0.0000
vt 0.9570 0.6535
vt 0.9463 0.0000
vt 0.9463 0.6535
vt 0.9364 0.0000
vt 0.9364 0.6535
vt 0.9278 0.0000
vt 0.7678 0.0000
vt 0.7757 0.6535
vt 0.7678 0.6535
vt 0.7757 0.0000
vt 0.7850 0.6535
vt 0.7850 0.0000
vt 0.7954 0.6535
vt 0.7954 0.0000
vt 0.8064 0.6535
vt 0.8064 0.0000
vt 0.8176 0.6535
vt 0.8176 0.0000
vt 0.8286 0.6535
vt 0.8286 0.0000
vt 0.8390 0.6535
vt 0.8390 0.0000
vt 0.8483 0.6535
vt 0.8483 0.0000
vt 0.8569 0.6535
vt 0.8569 0.0000
vt 0.8668 0.6535
vt 0.8668 0.0000
vt 0.8775 0.6535
vt 0.8775 0.0000
vt 0.8887 0.6535
vt 0.8887 0.0000
vt 0.8999 0.6535
vt 0.8999 0.0000
vt 0.9106 0.6535
vt 0.9106 0.0000
vt 0.9205 0.6535
vt 0.9205 0.0000
vt 0.9278 0.6535
vt 0.7678 0.6535
vt 0.7598 0.0000
vt 0.7678 0.0000
vt 0.7598 0.6535
vt 0.7505 0.0000
vt 0.6476 0.5943
vt 0.5685 0.5863
vt 0.5580 0.5663
vt 0.7505 0.6535
vt 0.7401 0.0000
vt 0.7401 0.6535
vt 0.6556 0.4700
vt 0.5623 0.4607
vt 0.5558 0.4389
vt 0.7550 1.0000
vt 0.7348 0.6535
vt 0.7550 0.6535
vt 0.7348 1.0000
vt 0.7149 0.6535
vt 0.7149 1.0000
vt 0.6962 0.6535
vt 0.6962 1.0000
vt 0.6794 0.6535
vt 0.6794 0.0000
vt 0.3397 0.2422
vt 0.3397 0.0000
vt 0.6794 0.2422
vt 0.3397 0.2604
vt 0.6794 0.2604
vt 0.3397 0.2802
vt 0.6794 0.2802
vt 0.3397 0.3007
vt 0.6794 0.3007
vt 0.3397 0.3212
vt 0.6794 0.3212
vt 0.3397 0.3409
vt 0.6794 0.3409
vt 0.3397 0.3591
vt 0.6794 0.3591
vt 0.3397 0.3749
vt 0.5558 0.7214
vt 0.5415 0.3749
vt 0.5558 0.3749
vt 0.5415 0.7214
vt 0.5247 0.3749
vt 0.5247 0.7214
vt 0.5060 0.3749
vt 0.5060 0.7214
vt 0.4862 0.3749
vt 0.4862 0.7214
vt 0.4660 0.3749
vt 0.4660 0.7214
vt 0.4461 0.3749
vt 0.4461 0.7214
vt 0.4274 0.3749
vt 0.4274 0.7214
vt 0.4106 0.3749
vt 0.0000 0.3749
vt 0.3397 0.3591
vt 0.3397 0.3749
vt 0.0000 0.3591
vt 0.3397 0.3409
vt 0.0000 0.3409
vt 0.3397 0.3212
vt 0.0000 0.3212
vt 0.3397 0.3007
vt 0.0000 0.3007
vt 0.3397 0.2802
vt 0.0000 0.2802
vt 0.3397 0.2604
vt 0.0000 0.2604
vt 0.3397 0.2422
vt 0.0000 0.2422
vt 0.3397 0.0000
vt 0.8246 1.0000
vt 0.8103 0.6535
vt 0.8246 0.6535
vt 0.8103 1.0000
vt 0.7935 0.6535
vt 0.1936 0.7543
vt 0.0000 0.6944
vt 0.2053 0.7150
vt 0.7935 1.0000
vt 0.7748 0.6535
vt 0.7748 1.0000
vt 0.2170 0.4300
vt 0.4067 0.4491
vt 0.2053 0.4693
vt 0.6794 0.6535
vt 0.9278 0.6535
vt 0.9278 0.0000
vt 0.5558 0.5550
vt 0.5623 0.5218
vt 0.5558 0.5436
vt 0.5580 0.5324
vt 0.5685 0.5123
vt 0.5765 0.5042
vt 0.5843 0.4977
vt 0.5947 0.4933
vt 0.6057 0.4911
vt 0.6169 0.4911
vt 0.6279 0.4933
vt 0.6383 0.4977
vt 0.6476 0.5041
vt 0.6556 0.5122
vt 0.6618 0.5217
vt 0.6661 0.5322
vt 0.6683 0.5435
vt 0.6618 0.5767
vt 0.6683 0.5549
vt 0.6661 0.5661
vt 0.6556 0.5862
vt 0.6383 0.6006
vt 0.6279 0.6050
vt 0.6169 0.6073
vt 0.6057 0.6073
vt 0.5947 0.6050
vt 0.5843 0.6006
vt 0.5750 0.5943
vt 0.5623 0.5768
vt 0.5558 0.4274
vt 0.5580 0.4162
vt 0.5623 0.4057
vt 0.5685 0.3961
vt 0.5765 0.3881
vt 0.6476 0.3879
vt 0.5843 0.3816
vt 0.5947 0.3772
vt 0.6057 0.3749
vt 0.6169 0.3749
vt 0.6279 0.3772
vt 0.6383 0.3816
vt 0.6556 0.3960
vt 0.6618 0.4055
vt 0.6661 0.4161
vt 0.6683 0.4273
vt 0.6683 0.4387
vt 0.6661 0.4500
vt 0.6618 0.4605
vt 0.6476 0.4781
vt 0.6383 0.4845
vt 0.6279 0.4889
vt 0.5685 0.4702
vt 0.6169 0.4911
vt 0.6057 0.4911
vt 0.5947 0.4889
vt 0.5843 0.4845
vt 0.5750 0.4781
vt 0.5580 0.4501
vt 0.6794 1.0000
vt 0.6794 0.3749
vt 0.4106 0.7214
vt 0.0000 0.0000
vt 0.0944 0.3790
vt 0.1143 0.3749
vt 0.1730 0.3869
vt 0.1345 0.3749
vt 0.1543 0.3790
vt 0.1898 0.3983
vt 0.2041 0.4129
vt 0.1936 0.6551
vt 0.2014 0.6742
vt 0.2053 0.6944
vt 0.0590 0.3983
vt 0.0758 0.3869
vt 0.0039 0.6742
vt 0.0117 0.6551
vt 0.0229 0.6380
vt 0.2014 0.7353
vt 0.1824 0.7715
vt 0.1681 0.7860
vt 0.1513 0.7975
vt 0.1326 0.8054
vt 0.1128 0.8094
vt 0.0925 0.8094
vt 0.0727 0.8054
vt 0.0540 0.7975
vt 0.0372 0.7860
vt 0.0229 0.7715
vt 0.0117 0.7543
vt 0.0039 0.7353
vt 0.0000 0.7150
vt 0.3597 0.8054
vt 0.3398 0.8094
vt 0.3196 0.8094
vt 0.2998 0.8054
vt 0.2811 0.7975
vt 0.2643 0.7860
vt 0.2282 0.5464
vt 0.2170 0.5292
vt 0.2093 0.5102
vt 0.2053 0.4900
vt 0.2093 0.4491
vt 0.2282 0.4129
vt 0.2425 0.3983
vt 0.2593 0.3869
vt 0.2780 0.3790
vt 0.2979 0.3749
vt 0.3181 0.3749
vt 0.3379 0.3790
vt 0.3566 0.3869
vt 0.3734 0.3983
vt 0.3877 0.4129
vt 0.3989 0.4300
vt 0.4106 0.4693
vt 0.4106 0.4899
vt 0.4067 0.5102
vt 0.3989 0.5292
vt 0.4094 0.7715
vt 0.3951 0.7860
vt 0.3783 0.7975
vn 0.0000 -0.2745 -0.9616
vn 0.0000 -0.4574 -0.8892
vn -0.0000 -0.6225 -0.7826
vn 0.0000 -0.7635 -0.6458
vn 0.0000 -0.8276 -0.5613
vn 0.0000 -0.9524 -0.3048
vn 0.0000 -0.9935 -0.1137
vn -0.0000 -0.9967 0.0817
vn 0.0000 -0.9618 0.2736
vn 0.0000 -0.8902 0.4556
vn 0.0000 -0.7846 0.6200
vn 0.0000 -0.6489 0.7609
vn 0.0000 -0.4879 0.8729
vn 0.0000 -0.3080 0.9514
vn 0.0000 -0.1159 0.9933
vn 0.0000 0.0809 0.9967
vn 0.0000 0.2745 0.9616
vn 0.0000 0.4575 0.8892
vn 0.0000 0.6226 0.7826
vn 0.0000 0.7635 0.6458
vn 0.0000 0.8748 0.4844
vn 0.0000 0.9524 0.3048
vn 0.0000 0.9935 0.1137
vn 0.0000 0.9967 -0.0816
vn 0.0000 0.9618 -0.2737
vn 0.0000 0.8902 -0.4555
vn 0.0000 0.7846 -0.6200
vn 0.0000 0.5777 -0.8163
vn 0.0000 0.4879 -0.8729
vn 0.0000 0.3080 -0.9514
vn 1.0000 -0.0000 0.0000
vn 0.0000 0.1159 -0.9933
vn 0.0000 -0.0808 -0.9967
vn -1.0000 0.0000 0.0000
vn 0.0000 -0.4575 -0.8892
vn -0.0000 -0.6226 -0.7825
vn 0.0000 -0.9921 0.1254
vn 0.0000 -0.9967 0.0816
vn 0.0000 -0.9618 0.2737
vn 0.0000 -0.8902 0.4555
vn 0.0000 -0.6488 0.7609
vn 0.0000 0.0808 0.9967
vn 0.0000 0.8748 0.4845
vn 0.0000 0.9729 -0.2312
vn 0.0000 -0.8903 0.4555
vn 0.0000 -0.6488 0.7610
vn 0.0000 -0.3079 0.9514
vn 0.0000 0.6225 0.7826
vn 0.0000 0.9935 0.1138
vn 0.0000 0.9966 -0.0818
vn 0.0000 0.9618 -0.2736
vn 0.0000 0.5776 -0.8163
vn 0.0000 -0.0809 -0.9967
vn 0.0000 0.9967 -0.0817
vn 0.0000 0.9618 -0.2738
vn 0.0000 0.3079 -0.9514
s off
f 2/1/1 3/2/1 1/3/1
f 4/4/2 5/5/2 3/2/2
f 6/6/3 7/7/3 5/5/3
f 8/8/4 9/9/4 7/7/4
f 10/10/5 11/11/5 9/9/5
f 12/12/6 13/13/6 11/14/6
f 14/15/7 15/16/7 13/13/7
f 16/17/8 17/18/8 15/16/8
f 18/19/9 19/20/9 17/18/9
f 20/21/10 21/22/10 19/20/10
f 22/23/11 23/24/11 21/22/11
f 24/25/12 25/26/12 23/24/12
f 26/27/13 27/28/13 25/29/13
f 28/30/14 29/31/14 27/28/14
f 30/32/15 31/33/15 29/31/15
f 32/34/16 33/35/16 31/33/16
f 34/36/17 35/37/17 33/35/17
f 36/38/18 37/39/18 35/37/18
f 38/40/19 39/41/19 37/39/19
f 40/42/20 41/43/20 39/41/20
f 42/44/21 43/45/21 41/43/21
f 44/46/22 45/47/22 43/45/22
f 46/48/23 47/49/23 45/47/23
f 48/50/24 49/51/24 47/49/24
f 50/52/25 51/53/25 49/51/25
f 52/54/26 53/55/26 51/53/26
f 54/56/27 55/57/27 53/55/27
f 56/58/28 57/59/28 55/57/28
f 58/60/29 59/61/29 57/62/29
f 60/63/30 61/64/30 59/61/30
f 26/65/31 10/66/31 6/67/31
f 62/68/32 63/69/32 61/64/32
f 64/70/33 1/3/33 63/69/33
f 39/71/34 59/72/34 63/73/34
f 66/74/1 67/75/1 65/76/1
f 68/77/35 69/78/35 67/75/35
f 70/79/36 71/80/36 69/78/36
f 72/81/4 73/82/4 71/80/4
f 74/83/37 75/84/37 73/85/37
f 76/86/6 77/87/6 75/84/6
f 78/88/7 79/89/7 77/87/7
f 80/90/38 81/91/38 79/89/38
f 82/92/39 83/93/39 81/91/39
f 84/94/40 85/95/40 83/93/40
f 86/96/11 87/97/11 85/95/11
f 88/98/41 89/99/41 87/97/41
f 90/100/13 91/101/13 89/102/13
f 92/103/14 93/104/14 91/101/14
f 94/105/15 95/106/15 93/104/15
f 96/107/42 97/108/42 95/106/42
f 98/109/17 99/110/17 97/108/17
f 100/111/18 101/112/18 99/110/18
f 102/113/19 103/114/19 101/112/19
f 104/115/20 105/116/20 103/114/20
f 106/117/43 107/118/43 105/119/43
f 108/120/22 109/121/22 107/118/22
f 110/122/23 111/123/23 109/121/23
f 112/124/24 113/125/24 111/123/24
f 114/126/25 115/127/25 113/125/25
f 116/128/26 117/129/26 115/127/26
f 118/130/27 119/131/27 117/129/27
f 120/132/44 121/133/44 119/131/44
f 122/134/29 123/135/29 121/136/29
f 124/137/30 125/138/30 123/135/30
f 110/139/31 82/140/31 114/141/31
f 126/142/32 127/143/32 125/138/32
f 128/144/33 65/76/33 127/143/33
f 87/145/34 111/146/34 83/147/34
f 2/1/1 4/4/1 3/2/1
f 4/4/35 6/6/35 5/5/35
f 6/6/36 8/8/36 7/7/36
f 8/8/4 10/10/4 9/9/4
f 10/10/5 12/148/5 11/11/5
f 12/12/6 14/15/6 13/13/6
f 14/15/7 16/17/7 15/16/7
f 16/17/38 18/19/38 17/18/38
f 18/19/39 20/21/39 19/20/39
f 20/21/45 22/23/45 21/22/45
f 22/23/11 24/25/11 23/24/11
f 24/25/46 26/149/46 25/26/46
f 26/27/13 28/30/13 27/28/13
f 28/30/47 30/32/47 29/31/47
f 30/32/15 32/34/15 31/33/15
f 32/34/16 34/36/16 33/35/16
f 34/36/17 36/38/17 35/37/17
f 36/38/18 38/40/18 37/39/18
f 38/40/48 40/42/48 39/41/48
f 40/42/20 42/44/20 41/43/20
f 42/44/43 44/46/43 43/45/43
f 44/46/22 46/48/22 45/47/22
f 46/48/49 48/50/49 47/49/49
f 48/50/50 50/52/50 49/51/50
f 50/52/51 52/54/51 51/53/51
f 52/54/26 54/56/26 53/55/26
f 54/56/27 56/58/27 55/57/27
f 56/58/52 58/150/52 57/59/52
f 58/60/29 60/63/29 59/61/29
f 60/63/30 62/68/30 61/64/30
f 6/67/31 4/151/31 62/152/31
f 2/153/31 64/154/31 62/152/31
f 62/152/31 60/155/31 58/156/31
f 58/156/31 56/157/31 54/158/31
f 54/158/31 52/159/31 58/156/31
f 50/160/31 48/161/31 58/156/31
f 46/162/31 44/163/31 58/156/31
f 42/164/31 40/165/31 38/166/31
f 38/166/31 36/167/31 30/168/31
f 34/169/31 32/170/31 30/168/31
f 30/168/31 28/171/31 26/65/31
f 26/65/31 24/172/31 10/66/31
f 22/173/31 20/174/31 10/66/31
f 18/175/31 16/176/31 10/66/31
f 14/177/31 12/178/31 10/66/31
f 10/66/31 8/179/31 6/67/31
f 4/151/31 2/153/31 62/152/31
f 62/152/31 58/156/31 38/166/31
f 52/159/31 50/160/31 58/156/31
f 44/163/31 42/164/31 58/156/31
f 36/167/31 34/169/31 30/168/31
f 30/168/31 26/65/31 6/67/31
f 20/174/31 18/175/31 10/66/31
f 14/177/31 10/66/31 16/176/31
f 6/67/31 62/152/31 38/166/31
f 48/161/31 46/162/31 58/156/31
f 38/166/31 30/168/31 6/67/31
f 22/173/31 10/66/31 24/172/31
f 58/156/31 42/164/31 38/166/31
f 62/68/32 64/70/32 63/69/32
f 64/70/53 2/1/53 1/3/53
f 63/73/34 1/180/34 3/181/34
f 3/181/34 5/182/34 7/183/34
f 7/183/34 9/184/34 23/185/34
f 11/186/34 13/187/34 9/184/34
f 15/188/34 17/189/34 9/184/34
f 19/190/34 21/191/34 9/184/34
f 23/185/34 25/192/34 27/193/34
f 27/193/34 29/194/34 31/195/34
f 31/195/34 33/196/34 35/197/34
f 35/197/34 37/198/34 39/71/34
f 39/71/34 41/199/34 43/200/34
f 43/200/34 45/201/34 57/202/34
f 47/203/34 49/204/34 57/202/34
f 51/205/34 53/206/34 57/202/34
f 55/207/34 57/202/34 53/206/34
f 59/72/34 61/208/34 63/73/34
f 63/73/34 3/181/34 31/195/34
f 9/184/34 13/187/34 15/188/34
f 17/189/34 19/190/34 9/184/34
f 23/185/34 27/193/34 7/183/34
f 31/195/34 35/197/34 63/73/34
f 39/71/34 43/200/34 59/72/34
f 49/204/34 51/205/34 57/202/34
f 57/202/34 45/201/34 47/203/34
f 3/181/34 7/183/34 31/195/34
f 21/191/34 23/185/34 9/184/34
f 35/197/34 39/71/34 63/73/34
f 57/202/34 59/72/34 43/200/34
f 7/183/34 27/193/34 31/195/34
f 66/74/1 68/77/1 67/75/1
f 68/77/2 70/79/2 69/78/2
f 70/79/3 72/81/3 71/80/3
f 72/81/4 74/209/4 73/82/4
f 74/83/37 76/86/37 75/84/37
f 76/86/6 78/88/6 77/87/6
f 78/88/7 80/90/7 79/89/7
f 80/90/38 82/92/38 81/91/38
f 82/92/39 84/94/39 83/93/39
f 84/94/40 86/96/40 85/95/40
f 86/96/11 88/98/11 87/97/11
f 88/98/41 90/210/41 89/99/41
f 90/100/13 92/103/13 91/101/13
f 92/103/47 94/105/47 93/104/47
f 94/105/15 96/107/15 95/106/15
f 96/107/42 98/109/42 97/108/42
f 98/109/17 100/111/17 99/110/17
f 100/111/18 102/113/18 101/112/18
f 102/113/48 104/115/48 103/114/48
f 104/115/20 106/211/20 105/116/20
f 106/117/43 108/120/43 107/118/43
f 108/120/22 110/122/22 109/121/22
f 110/122/23 112/124/23 111/123/23
f 112/124/54 114/126/54 113/125/54
f 114/126/55 116/128/55 115/127/55
f 116/128/26 118/130/26 117/129/26
f 118/130/27 120/132/27 119/131/27
f 120/132/44 122/212/44 121/133/44
f 122/134/29 124/137/29 123/135/29
f 124/137/56 126/142/56 125/138/56
f 70/213/31 68/214/31 126/215/31
f 66/216/31 128/217/31 126/215/31
f 126/215/31 124/218/31 122/219/31
f 120/220/31 118/221/31 116/222/31
f 126/215/31 122/219/31 70/213/31
f 68/214/31 66/216/31 126/215/31
f 74/223/31 72/224/31 70/213/31
f 80/225/31 78/226/31 76/227/31
f 76/227/31 74/223/31 120/220/31
f 70/213/31 122/219/31 74/223/31
f 120/220/31 116/222/31 76/227/31
f 114/141/31 112/228/31 110/139/31
f 110/139/31 108/229/31 106/230/31
f 106/230/31 104/231/31 102/232/31
f 102/232/31 100/233/31 98/234/31
f 98/234/31 96/235/31 102/232/31
f 94/236/31 92/237/31 90/238/31
f 90/238/31 88/239/31 86/240/31
f 86/240/31 84/241/31 82/140/31
f 82/140/31 80/225/31 114/141/31
f 74/223/31 122/219/31 120/220/31
f 116/222/31 114/141/31 76/227/31
f 110/139/31 106/230/31 94/236/31
f 102/232/31 96/235/31 94/236/31
f 94/236/31 90/238/31 110/139/31
f 86/240/31 82/140/31 110/139/31
f 76/227/31 114/141/31 80/225/31
f 106/230/31 102/232/31 94/236/31
f 90/238/31 86/240/31 110/139/31
f 126/142/32 128/144/32 127/143/32
f 128/144/33 66/74/33 65/76/33
f 127/242/34 65/243/34 67/244/34
f 67/244/34 69/245/34 127/242/34
f 71/246/34 73/247/34 127/242/34
f 75/248/34 77/249/34 79/250/34
f 79/250/34 81/251/34 83/147/34
f 83/147/34 85/252/34 87/145/34
f 87/145/34 89/253/34 91/254/34
f 91/254/34 93/255/34 95/256/34
f 95/256/34 97/257/34 99/258/34
f 99/258/34 101/259/34 95/256/34
f 103/260/34 105/261/34 107/262/34
f 107/262/34 109/263/34 111/146/34
f 111/146/34 113/264/34 115/265/34
f 115/265/34 117/266/34 119/267/34
f 119/267/34 121/268/34 73/247/34
f 123/269/34 125/270/34 127/242/34
f 127/242/34 69/245/34 71/246/34
f 75/248/34 79/250/34 119/267/34
f 127/242/34 73/247/34 123/269/34
f 121/268/34 123/269/34 73/247/34
f 111/146/34 115/265/34 83/147/34
f 103/260/34 107/262/34 87/145/34
f 95/256/34 101/259/34 103/260/34
f 87/145/34 91/254/34 103/260/34
f 79/250/34 115/265/34 119/267/34
f 119/267/34 73/247/34 75/248/34
f 107/262/34 111/146/34 87/145/34
f 91/254/34 95/256/34 103/260/34
f 79/250/34 83/147/34 115/265/34
