# Blender v2.78 (sub 0) OBJ File: ''
# www.blender.org
o aTorus.012_Cylinder.024
v 0.035481 0.790525 -0.072499
v -0.033094 0.790525 -0.072499
v 0.035481 0.791681 -0.072975
v -0.033094 0.791681 -0.072975
v 0.035481 0.792722 -0.073665
v -0.033094 0.792722 -0.073665
v 0.035481 0.793609 -0.074543
v -0.033094 0.793609 -0.074543
v 0.035481 0.794308 -0.075575
v -0.033094 0.794308 -0.075575
v 0.035481 0.794836 -0.076569
v -0.033094 0.794836 -0.076569
v 0.035481 0.795085 -0.077786
v -0.033094 0.795085 -0.077786
v 0.035481 0.795090 -0.079027
v -0.033094 0.795090 -0.079027
v 0.035481 0.794851 -0.080243
v -0.033094 0.794851 -0.080243
v 0.035481 0.794377 -0.081389
v -0.033094 0.794377 -0.081389
v 0.035481 0.793687 -0.082420
v -0.033094 0.793687 -0.082420
v 0.035481 0.792807 -0.083297
v -0.033094 0.792807 -0.083297
v 0.035481 0.791771 -0.083985
v -0.033094 0.791771 -0.083985
v 0.035481 0.790619 -0.084459
v -0.033094 0.790619 -0.084459
v 0.035481 0.789394 -0.084701
v -0.033094 0.789394 -0.084701
v 0.035481 0.788145 -0.084700
v -0.033094 0.788145 -0.084700
v 0.035481 0.786919 -0.084457
v -0.033094 0.786919 -0.084457
v 0.035481 0.785762 -0.083981
v -0.033094 0.785762 -0.083981
v 0.035481 0.784721 -0.083291
v -0.033094 0.784721 -0.083291
v 0.035481 0.783834 -0.082413
v -0.033094 0.783834 -0.082413
v 0.035481 0.783136 -0.081381
v -0.033094 0.783136 -0.081381
v 0.035481 0.782653 -0.080235
v -0.033094 0.782653 -0.080235
v 0.035481 0.782404 -0.079018
v -0.033094 0.782404 -0.079018
v 0.035481 0.782399 -0.077777
v -0.033094 0.782399 -0.077777
v 0.035481 0.782638 -0.076560
v -0.033094 0.782638 -0.076560
v 0.035481 0.783112 -0.075414
v -0.033094 0.783112 -0.075414
v 0.035481 0.783802 -0.074383
v -0.033094 0.783802 -0.074383
v 0.035481 0.784682 -0.073507
v -0.033094 0.784682 -0.073507
v 0.035481 0.785672 -0.072971
v -0.033094 0.785672 -0.072971
v 0.035481 0.786824 -0.072497
v -0.033094 0.786824 -0.072497
v 0.035481 0.788049 -0.072256
v -0.033094 0.788049 -0.072256
v 0.035481 0.789298 -0.072256
v -0.033094 0.789298 -0.072256
v 0.018388 0.790980 -0.043728
v -0.017966 0.790980 -0.043728
v 0.018388 0.793064 -0.044585
v -0.017966 0.793064 -0.044585
v 0.018388 0.794942 -0.045829
v -0.017966 0.794942 -0.045829
v 0.018388 0.796541 -0.047411
v -0.017966 0.796541 -0.047411
v 0.018388 0.797800 -0.049272
v -0.017966 0.797800 -0.049272
v 0.018388 0.791593 -0.074805
v -0.017966 0.791593 -0.074805
v 0.018388 0.792041 -0.076999
v -0.017966 0.792041 -0.076999
v 0.018388 0.792050 -0.079236
v -0.017966 0.792050 -0.079236
v 0.018388 0.791620 -0.081429
v -0.017966 0.791620 -0.081429
v 0.018388 0.790766 -0.083494
v -0.017966 0.790766 -0.083494
v 0.018388 0.789522 -0.085353
v -0.017966 0.789522 -0.085353
v 0.018388 0.787936 -0.086933
v -0.017966 0.787936 -0.086933
v 0.018388 0.786068 -0.088175
v -0.017966 0.786068 -0.088175
v 0.018388 0.783991 -0.089029
v -0.017966 0.783991 -0.089029
v 0.018388 0.781783 -0.089464
v -0.017966 0.781783 -0.089464
v 0.018388 0.779531 -0.089462
v -0.017966 0.779531 -0.089462
v 0.018388 0.777320 -0.089024
v -0.017966 0.777320 -0.089024
v 0.018388 0.775236 -0.088167
v -0.017966 0.775236 -0.088167
v 0.018388 0.773358 -0.086923
v -0.017966 0.773358 -0.086923
v 0.018388 0.771759 -0.085341
v -0.017966 0.771759 -0.085341
v 0.018388 0.770500 -0.083480
v -0.017966 0.770500 -0.083480
v 0.018388 0.769630 -0.081413
v -0.017966 0.769630 -0.081413
v 0.018388 0.769182 -0.079219
v -0.017966 0.769182 -0.079219
v 0.018388 0.769173 -0.076983
v -0.017966 0.769173 -0.076983
v 0.018388 0.769604 -0.074790
v -0.017966 0.769604 -0.074790
v 0.018388 0.770458 -0.072724
v -0.017966 0.770458 -0.072724
v 0.018388 0.771702 -0.070865
v -0.017966 0.771702 -0.070865
v 0.018388 0.773288 -0.069285
v -0.017966 0.773288 -0.069285
v 0.018388 0.782232 -0.044577
v -0.017966 0.782232 -0.044577
v 0.018388 0.784310 -0.043723
v -0.017966 0.784310 -0.043723
v 0.018388 0.786517 -0.043288
v -0.017966 0.786517 -0.043288
v 0.018388 0.788769 -0.043290
v -0.017966 0.788769 -0.043290
vt 0.7181 0.0000
vt 0.7293 0.6535
vt 0.7181 0.6535
vt 0.7293 0.0000
vt 0.7403 0.6535
vt 0.7403 0.0000
vt 0.7506 0.6535
vt 0.7506 0.0000
vt 0.7600 0.6535
vt 0.7600 0.0000
vt 0.7678 0.6535
vt 1.0000 0.6535
vt 0.9901 0.0000
vt 1.0000 0.0000
vt 0.9901 0.6535
vt 0.9793 0.0000
vt 0.9793 0.6535
vt 0.9682 0.0000
vt 0.9682 0.6535
vt 0.9570 0.0000
vt 0.9570 0.6535
vt 0.9463 0.0000
vt 0.9463 0.6535
vt 0.9364 0.0000
vt 0.9364 0.6535
vt 0.9278 0.0000
vt 0.7678 0.0000
vt 0.7757 0.6535
vt 0.7678 0.6535
vt 0.7757 0.0000
vt 0.7850 0.6535
vt 0.7850 0.0000
vt 0.7954 0.6535
vt 0.7954 0.0000
vt 0.8064 0.6535
vt 0.8064 0.0000
vt 0.8176 0.6535
vt 0.8176 0.0000
vt 0.8286 0.6535
vt 0.8286 0.0000
vt 0.8390 0.6535
vt 0.8390 0.0000
vt 0.8483 0.6535
vt 0.9278 0.6535
vt 0.9191 0.0000
vt 0.9278 0.0000
vt 0.9191 0.6535
vt 0.9093 0.0000
vt 0.9093 0.6535
vt 0.8985 0.0000
vt 0.8985 0.6535
vt 0.8874 0.0000
vt 0.8874 0.6535
vt 0.8762 0.0000
vt 0.8762 0.6535
vt 0.8655 0.0000
vt 0.8655 0.6535
vt 0.8556 0.0000
vt 0.8556 0.6535
vt 0.8483 0.0000
vt 0.6794 0.0000
vt 0.6874 0.6535
vt 0.6794 0.6535
vt 0.6874 0.0000
vt 0.6967 0.6535
vt 0.6476 0.5943
vt 0.5623 0.5768
vt 0.5580 0.5663
vt 0.6967 0.0000
vt 0.7071 0.6535
vt 0.7071 0.0000
vt 0.6618 0.4605
vt 0.5623 0.4604
vt 0.5580 0.4498
vt 0.7491 1.0000
vt 0.7693 0.6535
vt 0.7693 1.0000
vt 0.7891 0.6535
vt 0.7891 1.0000
vt 0.8078 1.0000
vt 0.8078 0.6535
vt 0.8246 1.0000
vt 0.6794 0.0000
vt 0.3397 0.2422
vt 0.3397 0.0000
vt 0.6794 0.2422
vt 0.3397 0.2604
vt 0.6794 0.2604
vt 0.3397 0.2802
vt 0.6794 0.2802
vt 0.3397 0.3007
vt 0.6794 0.3007
vt 0.3397 0.3212
vt 0.6794 0.3212
vt 0.3397 0.3409
vt 0.6794 0.3409
vt 0.3397 0.3591
vt 0.6794 0.3591
vt 0.3397 0.3749
vt 0.4106 0.3749
vt 0.4249 0.7214
vt 0.4106 0.7214
vt 0.4249 0.3749
vt 0.4417 0.7214
vt 0.4417 0.3749
vt 0.4604 0.7214
vt 0.4604 0.3749
vt 0.4803 0.7214
vt 0.4803 0.3749
vt 0.5005 0.7214
vt 0.5005 0.3749
vt 0.5203 0.7214
vt 0.5203 0.3749
vt 0.5390 0.7214
vt 0.5390 0.3749
vt 0.5558 0.7214
vt 0.0000 0.3749
vt 0.3397 0.3591
vt 0.3397 0.3749
vt 0.0000 0.3591
vt 0.3397 0.3409
vt 0.0000 0.3409
vt 0.3397 0.3212
vt 0.0000 0.3212
vt 0.3397 0.3007
vt 0.0000 0.2802
vt 0.3397 0.2802
vt 0.3397 0.2604
vt 0.0000 0.2604
vt 0.3397 0.2422
vt 0.0000 0.2422
vt 0.3397 0.0000
vt 0.6794 0.6535
vt 0.6937 1.0000
vt 0.6794 1.0000
vt 0.6937 0.6535
vt 0.7105 1.0000
vt 0.1128 0.3749
vt 0.1824 0.5464
vt 0.0117 0.5292
vt 0.7105 0.6535
vt 0.7292 1.0000
vt 0.7292 0.6535
vt 0.2780 0.8054
vt 0.2593 0.7975
vt 0.2170 0.6551
vt 0.7678 0.0000
vt 0.9278 0.6535
vt 0.8483 0.0000
vt 0.8483 0.6535
vt 0.5558 0.5550
vt 0.6683 0.5549
vt 0.5558 0.5436
vt 0.5580 0.5324
vt 0.6661 0.5322
vt 0.5623 0.5218
vt 0.5685 0.5123
vt 0.5765 0.5042
vt 0.5843 0.4977
vt 0.5947 0.4933
vt 0.6057 0.4911
vt 0.6169 0.4911
vt 0.6279 0.4933
vt 0.6383 0.4977
vt 0.6476 0.5041
vt 0.6556 0.5122
vt 0.6618 0.5217
vt 0.6683 0.5435
vt 0.6661 0.5661
vt 0.6618 0.5767
vt 0.6556 0.5862
vt 0.6383 0.6006
vt 0.5685 0.5863
vt 0.6279 0.6050
vt 0.6169 0.6073
vt 0.6057 0.6073
vt 0.5947 0.6050
vt 0.5843 0.6006
vt 0.5750 0.5943
vt 0.5558 0.4386
vt 0.6661 0.4161
vt 0.5558 0.4272
vt 0.5580 0.4159
vt 0.5623 0.4054
vt 0.5685 0.3959
vt 0.6383 0.3816
vt 0.5750 0.3879
vt 0.5843 0.3816
vt 0.5947 0.3772
vt 0.6057 0.3749
vt 0.6169 0.3749
vt 0.6279 0.3772
vt 0.6476 0.3879
vt 0.6556 0.3960
vt 0.6618 0.4055
vt 0.6683 0.4273
vt 0.6683 0.4387
vt 0.6661 0.4500
vt 0.6556 0.4700
vt 0.5685 0.4699
vt 0.6476 0.4781
vt 0.6383 0.4845
vt 0.5765 0.4780
vt 0.6279 0.4889
vt 0.6169 0.4911
vt 0.6057 0.4911
vt 0.5947 0.4889
vt 0.5843 0.4845
vt 0.7491 0.6535
vt 0.8246 0.6535
vt 0.6794 0.3749
vt 0.5558 0.3749
vt 0.0000 0.3007
vt 0.0000 0.0000
vt 0.1109 0.8054
vt 0.0910 0.8094
vt 0.0708 0.8094
vt 0.0510 0.8054
vt 0.0323 0.7975
vt 0.0155 0.7860
vt 0.0012 0.7715
vt 0.0039 0.5102
vt 0.0000 0.4899
vt 0.1464 0.7860
vt 0.1295 0.7975
vt 0.2014 0.5102
vt 0.1936 0.5292
vt 0.0117 0.4300
vt 0.0000 0.4693
vt 0.0039 0.4491
vt 0.0229 0.4129
vt 0.0372 0.3983
vt 0.0540 0.3869
vt 0.0727 0.3790
vt 0.0925 0.3749
vt 0.1326 0.3790
vt 0.1513 0.3869
vt 0.1681 0.3983
vt 0.1824 0.4129
vt 0.1936 0.4300
vt 0.2014 0.4491
vt 0.2053 0.4693
vt 0.2053 0.4899
vt 0.2563 0.3790
vt 0.2761 0.3749
vt 0.3349 0.3869
vt 0.2963 0.3749
vt 0.3162 0.3790
vt 0.3517 0.3983
vt 0.3877 0.6380
vt 0.3989 0.6551
vt 0.4106 0.7150
vt 0.4067 0.6742
vt 0.4106 0.6944
vt 0.4067 0.7353
vt 0.3989 0.7543
vt 0.3877 0.7715
vt 0.3734 0.7860
vt 0.3566 0.7975
vt 0.3379 0.8054
vt 0.3181 0.8094
vt 0.2979 0.8094
vt 0.2425 0.7860
vt 0.2282 0.7715
vt 0.2170 0.7543
vt 0.2093 0.7353
vt 0.2053 0.7150
vt 0.2053 0.6944
vt 0.2093 0.6742
vt 0.2065 0.4129
vt 0.2208 0.3983
vt 0.2376 0.3869
vn 0.0000 -0.3804 -0.9248
vn 0.0000 -0.5523 -0.8337
vn 0.0000 -0.7034 -0.7108
vn 0.0000 -0.8282 -0.5604
vn 0.0000 -0.8829 -0.4696
vn 0.0000 -0.9798 -0.2000
vn 0.0000 -1.0000 -0.0039
vn 0.0000 -0.9813 0.1927
vn 0.0000 -0.9242 0.3819
vn 0.0000 -0.8311 0.5562
vn 0.0000 -0.7058 0.7084
vn 0.0000 -0.5534 0.8329
vn 0.0000 -0.3804 0.9248
vn 0.0000 -0.1933 0.9811
vn 0.0000 0.0007 1.0000
vn 0.0000 0.1943 0.9809
vn 0.0000 0.3804 0.9248
vn 0.0000 0.5523 0.8336
vn 0.0000 0.7035 0.7107
vn 0.0000 0.8283 0.5603
vn 0.0000 0.9216 0.3880
vn 0.0000 0.9798 0.2001
vn 0.0000 1.0000 0.0040
vn 0.0000 0.9813 -0.1927
vn 0.0000 0.9242 -0.3820
vn 0.0000 0.8311 -0.5562
vn 0.0000 0.7057 -0.7085
vn 0.0000 0.4761 -0.8794
vn 0.0000 0.3803 -0.9249
vn 0.0000 0.1932 -0.9812
vn 1.0000 -0.0000 0.0000
vn 0.0000 -0.0007 -1.0000
vn 0.0000 -0.1943 -0.9809
vn -1.0000 -0.0000 0.0000
vn 0.0000 -0.7035 -0.7107
vn 0.0000 -0.8283 -0.5603
vn 0.0000 -0.9717 0.2362
vn 0.0000 -0.9798 -0.2002
vn 0.0000 -1.0000 -0.0040
vn 0.0000 -0.9813 0.1926
vn 0.0000 -0.8310 0.5562
vn 0.0000 -0.5535 0.8329
vn 0.0000 0.5523 0.8337
vn 0.0000 0.8282 0.5604
vn 0.0000 0.9217 0.3880
vn 0.0000 0.9798 0.2002
vn 0.0000 0.9242 -0.3819
vn 0.0000 0.7058 -0.7084
vn 0.0000 0.9403 -0.3404
vn 0.0000 0.3804 -0.9248
vn 0.0000 0.1933 -0.9811
vn 0.0000 -0.5523 -0.8336
vn 0.0000 -0.9798 -0.2001
vn 0.0000 -0.9241 0.3820
vn 0.0000 -0.7057 0.7085
vn 0.0000 -0.1932 0.9812
vn 0.0000 0.7034 0.7108
vn 0.0000 1.0000 0.0039
vn 0.0000 -0.8311 0.5561
vn 0.0000 0.7058 -0.7085
s off
f 2/1/1 3/2/1 1/3/1
f 4/4/2 5/5/2 3/2/2
f 6/6/3 7/7/3 5/5/3
f 8/8/4 9/9/4 7/7/4
f 10/10/5 11/11/5 9/9/5
f 12/12/6 13/13/6 11/14/6
f 14/15/7 15/16/7 13/13/7
f 16/17/8 17/18/8 15/16/8
f 18/19/9 19/20/9 17/18/9
f 20/21/10 21/22/10 19/20/10
f 22/23/11 23/24/11 21/22/11
f 24/25/12 25/26/12 23/24/12
f 26/27/13 27/28/13 25/29/13
f 28/30/14 29/31/14 27/28/14
f 30/32/15 31/33/15 29/31/15
f 32/34/16 33/35/16 31/33/16
f 34/36/17 35/37/17 33/35/17
f 36/38/18 37/39/18 35/37/18
f 38/40/19 39/41/19 37/39/19
f 40/42/20 41/43/20 39/41/20
f 42/44/21 43/45/21 41/46/21
f 44/47/22 45/48/22 43/45/22
f 46/49/23 47/50/23 45/48/23
f 48/51/24 49/52/24 47/50/24
f 50/53/25 51/54/25 49/52/25
f 52/55/26 53/56/26 51/54/26
f 54/57/27 55/58/27 53/56/27
f 56/59/28 57/60/28 55/58/28
f 58/61/29 59/62/29 57/63/29
f 60/64/30 61/65/30 59/62/30
f 26/66/31 8/67/31 6/68/31
f 62/69/32 63/70/32 61/65/32
f 64/71/33 1/3/33 63/70/33
f 39/72/34 61/73/34 63/74/34
f 65/75/1 68/76/1 67/77/1
f 67/77/2 70/78/2 69/79/2
f 70/78/35 71/80/35 69/79/35
f 72/81/36 73/82/36 71/80/36
f 74/83/37 75/84/37 73/85/37
f 76/86/38 77/87/38 75/84/38
f 78/88/39 79/89/39 77/87/39
f 80/90/40 81/91/40 79/89/40
f 82/92/9 83/93/9 81/91/9
f 84/94/41 85/95/41 83/93/41
f 86/96/11 87/97/11 85/95/11
f 88/98/42 89/99/42 87/97/42
f 90/100/13 91/101/13 89/102/13
f 92/103/14 93/104/14 91/101/14
f 94/105/15 95/106/15 93/104/15
f 96/107/16 97/108/16 95/106/16
f 98/109/17 99/110/17 97/108/17
f 100/111/43 101/112/43 99/110/43
f 102/113/19 103/114/19 101/112/19
f 104/115/44 105/116/44 103/114/44
f 106/117/45 107/118/45 105/119/45
f 108/120/46 109/121/46 107/118/46
f 110/122/23 111/123/23 109/121/23
f 112/124/24 113/125/24 111/123/24
f 113/125/47 116/126/47 115/127/47
f 116/126/26 117/128/26 115/127/26
f 118/129/48 119/130/48 117/128/48
f 120/131/49 121/132/49 119/130/49
f 122/133/50 123/134/50 121/135/50
f 124/136/51 125/137/51 123/134/51
f 98/138/31 76/139/31 120/140/31
f 126/141/32 127/142/32 125/137/32
f 128/143/33 65/75/33 127/142/33
f 101/144/34 103/145/34 119/146/34
f 2/1/1 4/4/1 3/2/1
f 4/4/52 6/6/52 5/5/52
f 6/6/35 8/8/35 7/7/35
f 8/8/4 10/10/4 9/9/4
f 10/10/5 12/147/5 11/11/5
f 12/12/53 14/15/53 13/13/53
f 14/15/39 16/17/39 15/16/39
f 16/17/40 18/19/40 17/18/40
f 18/19/54 20/21/54 19/20/54
f 20/21/10 22/23/10 21/22/10
f 22/23/55 24/25/55 23/24/55
f 24/25/42 26/148/42 25/26/42
f 26/27/13 28/30/13 27/28/13
f 28/30/56 30/32/56 29/31/56
f 30/32/15 32/34/15 31/33/15
f 32/34/16 34/36/16 33/35/16
f 34/36/17 36/38/17 35/37/17
f 36/38/43 38/40/43 37/39/43
f 38/40/57 40/42/57 39/41/57
f 40/42/20 42/149/20 41/43/20
f 42/44/21 44/47/21 43/45/21
f 44/47/22 46/49/22 45/48/22
f 46/49/58 48/51/58 47/50/58
f 48/51/24 50/53/24 49/52/24
f 50/53/47 52/55/47 51/54/47
f 52/55/26 54/57/26 53/56/26
f 54/57/48 56/59/48 55/58/48
f 56/59/28 58/150/28 57/60/28
f 58/61/50 60/64/50 59/62/50
f 60/64/51 62/69/51 61/65/51
f 6/68/31 4/151/31 34/152/31
f 2/153/31 64/154/31 38/155/31
f 62/156/31 60/157/31 38/155/31
f 58/158/31 56/159/31 54/160/31
f 54/160/31 52/161/31 58/158/31
f 50/162/31 48/163/31 58/158/31
f 46/164/31 44/165/31 58/158/31
f 42/166/31 40/167/31 58/158/31
f 38/155/31 36/168/31 2/153/31
f 34/152/31 32/169/31 6/68/31
f 30/170/31 28/171/31 6/68/31
f 26/66/31 24/172/31 10/173/31
f 22/174/31 20/175/31 10/173/31
f 18/176/31 16/177/31 10/173/31
f 14/178/31 12/179/31 10/173/31
f 10/173/31 8/67/31 26/66/31
f 4/151/31 2/153/31 34/152/31
f 60/157/31 58/158/31 38/155/31
f 52/161/31 50/162/31 58/158/31
f 44/165/31 42/166/31 58/158/31
f 36/168/31 34/152/31 2/153/31
f 28/171/31 26/66/31 6/68/31
f 20/175/31 18/176/31 10/173/31
f 14/178/31 10/173/31 16/177/31
f 64/154/31 62/156/31 38/155/31
f 48/163/31 46/164/31 58/158/31
f 32/169/31 30/170/31 6/68/31
f 22/174/31 10/173/31 24/172/31
f 58/158/31 40/167/31 38/155/31
f 62/69/32 64/71/32 63/70/32
f 64/71/33 2/1/33 1/3/33
f 63/74/34 1/180/34 31/181/34
f 3/182/34 5/183/34 31/181/34
f 7/184/34 9/185/34 23/186/34
f 11/187/34 13/188/34 9/185/34
f 15/189/34 17/190/34 9/185/34
f 19/191/34 21/192/34 9/185/34
f 23/186/34 25/193/34 7/184/34
f 27/194/34 29/195/34 7/184/34
f 31/181/34 33/196/34 63/74/34
f 35/197/34 37/198/34 63/74/34
f 39/72/34 41/199/34 59/200/34
f 43/201/34 45/202/34 57/203/34
f 47/204/34 49/205/34 57/203/34
f 51/206/34 53/207/34 57/203/34
f 55/208/34 57/203/34 53/207/34
f 59/200/34 61/73/34 39/72/34
f 1/180/34 3/182/34 31/181/34
f 9/185/34 13/188/34 15/189/34
f 17/190/34 19/191/34 9/185/34
f 25/193/34 27/194/34 7/184/34
f 33/196/34 35/197/34 63/74/34
f 41/199/34 43/201/34 59/200/34
f 49/205/34 51/206/34 57/203/34
f 57/203/34 45/202/34 47/204/34
f 5/183/34 7/184/34 31/181/34
f 21/192/34 23/186/34 9/185/34
f 37/198/34 39/72/34 63/74/34
f 57/203/34 59/200/34 43/201/34
f 7/184/34 29/195/34 31/181/34
f 65/75/1 66/209/1 68/76/1
f 67/77/2 68/76/2 70/78/2
f 70/78/35 72/81/35 71/80/35
f 72/81/4 74/210/4 73/82/4
f 74/83/37 76/86/37 75/84/37
f 76/86/53 78/88/53 77/87/53
f 78/88/7 80/90/7 79/89/7
f 80/90/8 82/92/8 81/91/8
f 82/92/9 84/94/9 83/93/9
f 84/94/59 86/96/59 85/95/59
f 86/96/11 88/98/11 87/97/11
f 88/98/42 90/211/42 89/99/42
f 90/100/13 92/103/13 91/101/13
f 92/103/14 94/105/14 93/104/14
f 94/105/15 96/107/15 95/106/15
f 96/107/16 98/109/16 97/108/16
f 98/109/17 100/111/17 99/110/17
f 100/111/43 102/113/43 101/112/43
f 102/113/19 104/115/19 103/114/19
f 104/115/20 106/212/20 105/116/20
f 106/117/45 108/120/45 107/118/45
f 108/120/22 110/122/22 109/121/22
f 110/122/23 112/124/23 111/123/23
f 112/124/24 114/213/24 113/125/24
f 113/125/47 114/213/47 116/126/47
f 116/126/26 118/129/26 117/128/26
f 118/129/60 120/131/60 119/130/60
f 120/131/49 122/214/49 121/132/49
f 122/133/50 124/136/50 123/134/50
f 124/136/51 126/141/51 125/137/51
f 70/215/31 68/216/31 66/217/31
f 66/217/31 128/218/31 126/219/31
f 126/219/31 124/220/31 122/221/31
f 120/140/31 118/222/31 116/223/31
f 126/219/31 122/221/31 70/215/31
f 70/215/31 66/217/31 126/219/31
f 74/224/31 72/225/31 70/215/31
f 80/226/31 78/227/31 76/139/31
f 76/139/31 74/224/31 120/140/31
f 70/215/31 122/221/31 74/224/31
f 120/140/31 116/223/31 110/228/31
f 114/229/31 112/230/31 110/228/31
f 110/228/31 108/231/31 106/232/31
f 106/232/31 104/233/31 120/140/31
f 102/234/31 100/235/31 120/140/31
f 98/138/31 96/236/31 76/139/31
f 94/237/31 92/238/31 76/139/31
f 90/239/31 88/240/31 86/241/31
f 86/241/31 84/242/31 82/243/31
f 82/243/31 80/226/31 86/241/31
f 74/224/31 122/221/31 120/140/31
f 116/223/31 114/229/31 110/228/31
f 110/228/31 106/232/31 120/140/31
f 100/235/31 98/138/31 120/140/31
f 92/238/31 90/239/31 76/139/31
f 86/241/31 80/226/31 76/139/31
f 76/139/31 96/236/31 94/237/31
f 104/233/31 102/234/31 120/140/31
f 90/239/31 86/241/31 76/139/31
f 126/141/32 128/143/32 127/142/32
f 128/143/33 66/209/33 65/75/33
f 127/244/34 65/245/34 71/246/34
f 67/247/34 69/248/34 71/246/34
f 71/246/34 73/249/34 127/244/34
f 75/250/34 77/251/34 83/252/34
f 79/253/34 81/254/34 83/252/34
f 83/252/34 85/255/34 75/250/34
f 87/256/34 89/257/34 91/258/34
f 91/258/34 93/259/34 75/250/34
f 95/260/34 97/261/34 119/146/34
f 99/262/34 101/144/34 119/146/34
f 103/145/34 105/263/34 107/264/34
f 107/264/34 109/265/34 111/266/34
f 111/266/34 113/267/34 115/268/34
f 115/268/34 117/269/34 111/266/34
f 119/146/34 121/270/34 73/249/34
f 123/271/34 125/272/34 127/244/34
f 65/245/34 67/247/34 71/246/34
f 77/251/34 79/253/34 83/252/34
f 127/244/34 73/249/34 123/271/34
f 121/270/34 123/271/34 73/249/34
f 111/266/34 117/269/34 119/146/34
f 103/145/34 107/264/34 119/146/34
f 97/261/34 99/262/34 119/146/34
f 87/256/34 91/258/34 75/250/34
f 75/250/34 85/255/34 87/256/34
f 119/146/34 73/249/34 75/250/34
f 107/264/34 111/266/34 119/146/34
f 93/259/34 95/260/34 75/250/34
f 119/146/34 75/250/34 95/260/34
