# Blender v2.78 (sub 0) OBJ File: ''
# www.blender.org
o aTorus.005_Cylinder.018
v 0.030823 0.931325 -0.067837
v -0.028568 0.931325 -0.067837
v 0.030823 0.932351 -0.067606
v -0.028568 0.932351 -0.067606
v 0.030823 0.933391 -0.067550
v -0.028568 0.933391 -0.067550
v 0.030823 0.934403 -0.067672
v -0.028568 0.934403 -0.067672
v 0.030823 0.935350 -0.067967
v -0.028568 0.935350 -0.067967
v 0.030823 0.936160 -0.068315
v -0.028568 0.936160 -0.068315
v 0.030823 0.936869 -0.068916
v -0.028568 0.936869 -0.068916
v 0.030823 0.937417 -0.069638
v -0.028568 0.937417 -0.069638
v 0.030823 0.937782 -0.070453
v -0.028568 0.937782 -0.070453
v 0.030823 0.937950 -0.071331
v -0.028568 0.937950 -0.071331
v 0.030823 0.937914 -0.072236
v -0.028568 0.937914 -0.072236
v 0.030823 0.937676 -0.073135
v -0.028568 0.937676 -0.073135
v 0.030823 0.937246 -0.073993
v -0.028568 0.937246 -0.073993
v 0.030823 0.936638 -0.074777
v -0.028568 0.936638 -0.074777
v 0.030823 0.935878 -0.075457
v -0.028568 0.935878 -0.075457
v 0.030823 0.934994 -0.076007
v -0.028568 0.934994 -0.076007
v 0.030823 0.934020 -0.076405
v -0.028568 0.934020 -0.076405
v 0.030823 0.932994 -0.076636
v -0.028568 0.932994 -0.076636
v 0.030823 0.931955 -0.076692
v -0.028568 0.931955 -0.076692
v 0.030823 0.930942 -0.076569
v -0.028568 0.930942 -0.076569
v 0.030823 0.929996 -0.076274
v -0.028568 0.929996 -0.076274
v 0.030823 0.929151 -0.075817
v -0.028568 0.929151 -0.075817
v 0.030823 0.928442 -0.075216
v -0.028568 0.928442 -0.075216
v 0.030823 0.927894 -0.074494
v -0.028568 0.927894 -0.074494
v 0.030823 0.927529 -0.073679
v -0.028568 0.927529 -0.073679
v 0.030823 0.927361 -0.072801
v -0.028568 0.927361 -0.072801
v 0.030823 0.927397 -0.071896
v -0.028568 0.927397 -0.071896
v 0.030823 0.927635 -0.070997
v -0.028568 0.927635 -0.070997
v 0.030823 0.928100 -0.070248
v -0.028568 0.928100 -0.070248
v 0.030823 0.928707 -0.069464
v -0.028568 0.928707 -0.069464
v 0.030823 0.929467 -0.068784
v -0.028568 0.929467 -0.068784
v 0.030823 0.930351 -0.068235
v -0.028568 0.930351 -0.068235
v 0.016019 0.919025 -0.050840
v -0.015465 0.919025 -0.050840
v 0.016019 0.920875 -0.050423
v -0.015465 0.920875 -0.050423
v 0.016019 0.922749 -0.050323
v -0.015465 0.922749 -0.050323
v 0.016019 0.924574 -0.050543
v -0.015465 0.924574 -0.050543
v 0.016019 0.926280 -0.051075
v -0.015465 0.926280 -0.051075
v 0.016019 0.933092 -0.068713
v -0.015466 0.933092 -0.068713
v 0.016019 0.934372 -0.069796
v -0.015466 0.934372 -0.069796
v 0.016019 0.935359 -0.071098
v -0.015466 0.935359 -0.071098
v 0.016019 0.936017 -0.072568
v -0.015466 0.936017 -0.072568
v 0.016019 0.936319 -0.074149
v -0.015466 0.936319 -0.074149
v 0.016019 0.936255 -0.075782
v -0.015466 0.936255 -0.075782
v 0.016019 0.935826 -0.077403
v -0.015466 0.935826 -0.077403
v 0.016019 0.935050 -0.078949
v -0.015466 0.935050 -0.078949
v 0.016019 0.933955 -0.080363
v -0.015466 0.933955 -0.080363
v 0.016019 0.932585 -0.081588
v -0.015466 0.932585 -0.081588
v 0.016019 0.930992 -0.082579
v -0.015465 0.930992 -0.082579
v 0.016019 0.929236 -0.083296
v -0.015465 0.929236 -0.083296
v 0.016019 0.927386 -0.083713
v -0.015465 0.927386 -0.083713
v 0.016019 0.925512 -0.083813
v -0.015465 0.925512 -0.083813
v 0.016019 0.923687 -0.083593
v -0.015465 0.923687 -0.083593
v 0.016019 0.921981 -0.083061
v -0.015465 0.921981 -0.083061
v 0.016019 0.920459 -0.082238
v -0.015465 0.920459 -0.082238
v 0.016019 0.919179 -0.081154
v -0.015465 0.919179 -0.081154
v 0.016019 0.918192 -0.079852
v -0.015465 0.918192 -0.079852
v 0.016019 0.917534 -0.078383
v -0.015465 0.917534 -0.078383
v 0.016019 0.917232 -0.076801
v -0.015465 0.917232 -0.076801
v 0.016019 0.917296 -0.075168
v -0.015465 0.917296 -0.075168
v 0.016019 0.917725 -0.073547
v -0.015465 0.917725 -0.073547
v 0.016019 0.913211 -0.055187
v -0.015465 0.913211 -0.055187
v 0.016019 0.914306 -0.053773
v -0.015465 0.914306 -0.053773
v 0.016019 0.915676 -0.052548
v -0.015465 0.915676 -0.052548
v 0.016019 0.917269 -0.051558
v -0.015465 0.917269 -0.051558
vt 0.7181 0.0000
vt 0.7293 0.6535
vt 0.7181 0.6535
vt 0.7293 0.0000
vt 0.7403 0.6535
vt 0.7403 0.0000
vt 0.7506 0.6535
vt 0.7506 0.0000
vt 0.7600 0.6535
vt 0.7600 0.0000
vt 0.7678 0.6535
vt 1.0000 0.6535
vt 0.9901 0.0000
vt 1.0000 0.0000
vt 0.9901 0.6535
vt 0.9793 0.0000
vt 0.9793 0.6535
vt 0.9682 0.0000
vt 0.9682 0.6535
vt 0.9570 0.0000
vt 0.9570 0.6535
vt 0.9463 0.0000
vt 0.9463 0.6535
vt 0.9364 0.0000
vt 0.9364 0.6535
vt 0.9278 0.0000
vt 0.7678 0.0000
vt 0.7757 0.6535
vt 0.7678 0.6535
vt 0.7757 0.0000
vt 0.7850 0.6535
vt 0.7850 0.0000
vt 0.7954 0.6535
vt 0.7954 0.0000
vt 0.8064 0.6535
vt 0.8064 0.0000
vt 0.8176 0.6535
vt 0.8176 0.0000
vt 0.8286 0.6535
vt 0.8286 0.0000
vt 0.8390 0.6535
vt 0.8390 0.0000
vt 0.8483 0.6535
vt 0.8483 0.0000
vt 0.8569 0.6535
vt 0.8569 0.0000
vt 0.8668 0.6535
vt 0.8668 0.0000
vt 0.8775 0.6535
vt 0.8775 0.0000
vt 0.8887 0.6535
vt 0.8887 0.0000
vt 0.8999 0.6535
vt 0.8999 0.0000
vt 0.9106 0.6535
vt 0.9106 0.0000
vt 0.9205 0.6535
vt 0.9205 0.0000
vt 0.9278 0.6535
vt 0.6794 0.0000
vt 0.6874 0.6535
vt 0.6794 0.6535
vt 0.6874 0.0000
vt 0.6967 0.6535
vt 0.5765 0.3879
vt 0.6618 0.4054
vt 0.5685 0.3960
vt 0.6967 0.0000
vt 0.7071 0.6535
vt 0.7071 0.0000
vt 0.6618 0.5767
vt 0.5623 0.5765
vt 0.6661 0.5661
vt 0.7550 0.6535
vt 0.7348 1.0000
vt 0.7348 0.6535
vt 0.7149 0.6535
vt 0.6962 1.0000
vt 0.6962 0.6535
vt 0.6794 0.6535
vt 0.6794 0.0000
vt 0.3397 0.2422
vt 0.3397 0.0000
vt 0.6794 0.2422
vt 0.3397 0.2604
vt 0.6794 0.2604
vt 0.3397 0.2802
vt 0.6794 0.2802
vt 0.3397 0.3007
vt 0.6794 0.3007
vt 0.3397 0.3212
vt 0.6794 0.3212
vt 0.3397 0.3409
vt 0.6794 0.3409
vt 0.3397 0.3591
vt 0.6794 0.3591
vt 0.3397 0.3749
vt 0.5558 0.7214
vt 0.5415 0.3749
vt 0.5558 0.3749
vt 0.5415 0.7214
vt 0.5247 0.3749
vt 0.5247 0.7214
vt 0.5060 0.3749
vt 0.5060 0.7214
vt 0.4862 0.3749
vt 0.4862 0.7214
vt 0.4660 0.3749
vt 0.4660 0.7214
vt 0.4461 0.3749
vt 0.4461 0.7214
vt 0.4274 0.3749
vt 0.4274 0.7214
vt 0.4106 0.3749
vt 0.3397 0.0000
vt 0.0000 0.0159
vt 0.0000 0.0000
vt 0.3397 0.0340
vt 0.0000 0.0340
vt 0.0000 0.0537
vt 0.3397 0.0537
vt 0.0000 0.0743
vt 0.3397 0.0743
vt 0.0000 0.0948
vt 0.3397 0.0948
vt 0.0000 0.1145
vt 0.3397 0.1145
vt 0.0000 0.1328
vt 0.3397 0.1328
vt 0.0000 0.3749
vt 0.8246 1.0000
vt 0.8103 0.6535
vt 0.8246 0.6535
vt 0.8103 1.0000
vt 0.7935 0.6535
vt 0.1128 0.3749
vt 0.1824 0.5464
vt 0.0117 0.5292
vt 0.7935 1.0000
vt 0.7748 0.6535
vt 0.7550 1.0000
vt 0.3379 0.3790
vt 0.3566 0.3869
vt 0.3989 0.5292
vt 0.7678 0.0000
vt 0.9278 0.6535
vt 0.9278 0.0000
vt 0.6661 0.4159
vt 0.6683 0.4272
vt 0.5580 0.4161
vt 0.6683 0.4386
vt 0.6661 0.4498
vt 0.5558 0.4387
vt 0.6618 0.4604
vt 0.6556 0.4699
vt 0.5580 0.4500
vt 0.6476 0.4780
vt 0.6397 0.4845
vt 0.6294 0.4889
vt 0.6184 0.4911
vt 0.6071 0.4911
vt 0.5961 0.4889
vt 0.5858 0.4845
vt 0.5765 0.4781
vt 0.5685 0.4700
vt 0.5623 0.4605
vt 0.5558 0.4273
vt 0.5623 0.4055
vt 0.5858 0.3816
vt 0.6556 0.3959
vt 0.5961 0.3772
vt 0.6071 0.3749
vt 0.6184 0.3749
vt 0.6294 0.3772
vt 0.6397 0.3816
vt 0.6491 0.3879
vt 0.5580 0.5660
vt 0.5558 0.5548
vt 0.6683 0.5435
vt 0.5558 0.5433
vt 0.5580 0.5321
vt 0.6661 0.5322
vt 0.5623 0.5215
vt 0.5685 0.5120
vt 0.6476 0.5041
vt 0.5750 0.5041
vt 0.5843 0.4977
vt 0.5947 0.4933
vt 0.6057 0.4911
vt 0.6169 0.4911
vt 0.6279 0.4933
vt 0.6383 0.4977
vt 0.6556 0.5122
vt 0.6618 0.5217
vt 0.6683 0.5549
vt 0.6556 0.5862
vt 0.5685 0.5861
vt 0.6476 0.5943
vt 0.6383 0.6006
vt 0.5765 0.5941
vt 0.6279 0.6050
vt 0.6169 0.6073
vt 0.6057 0.6073
vt 0.5947 0.6050
vt 0.5843 0.6006
vt 0.7149 1.0000
vt 0.6794 1.0000
vt 0.6794 0.3749
vt 0.4106 0.7214
vt 0.3397 0.0159
vt 0.3397 0.3749
vt 0.1109 0.8054
vt 0.0910 0.8094
vt 0.1464 0.7860
vt 0.0708 0.8094
vt 0.0510 0.8054
vt 0.0012 0.7715
vt 0.0323 0.7975
vt 0.0155 0.7860
vt 0.0039 0.5102
vt 0.0117 0.4300
vt 0.1295 0.7975
vt 0.2014 0.5102
vt 0.1936 0.5292
vt 0.2014 0.4491
vt 0.0000 0.4899
vt 0.0000 0.4693
vt 0.0039 0.4491
vt 0.0229 0.4129
vt 0.0372 0.3983
vt 0.0540 0.3869
vt 0.0727 0.3790
vt 0.0925 0.3749
vt 0.1326 0.3790
vt 0.1513 0.3869
vt 0.1681 0.3983
vt 0.1824 0.4129
vt 0.1936 0.4300
vt 0.2053 0.4693
vt 0.2053 0.4900
vt 0.7748 1.0000
vt 0.3597 0.8054
vt 0.3398 0.8094
vt 0.4094 0.7715
vt 0.3196 0.8094
vt 0.2998 0.8054
vt 0.2643 0.7860
vt 0.2811 0.7975
vt 0.2282 0.5464
vt 0.2170 0.5292
vt 0.2093 0.4491
vt 0.2093 0.5102
vt 0.2053 0.4900
vt 0.2053 0.4693
vt 0.2170 0.4300
vt 0.2282 0.4129
vt 0.2425 0.3983
vt 0.2593 0.3869
vt 0.2780 0.3790
vt 0.2979 0.3749
vt 0.3181 0.3749
vt 0.3734 0.3983
vt 0.3877 0.4129
vt 0.3989 0.4300
vt 0.4067 0.4491
vt 0.4106 0.4693
vt 0.4106 0.4899
vt 0.4067 0.5102
vt 0.3951 0.7860
vt 0.3783 0.7975
vn 0.0000 0.2199 -0.9755
vn 0.0000 0.0535 -0.9986
vn 0.0000 -0.1197 -0.9928
vn 0.0000 -0.2976 -0.9547
vn 0.0000 -0.3944 -0.9189
vn 0.0000 -0.6463 -0.7631
vn 0.0000 -0.7967 -0.6043
vn -0.0000 -0.9128 -0.4084
vn 0.0000 -0.9822 -0.1879
vn 0.0000 -0.9992 0.0393
vn 0.0000 -0.9667 0.2557
vn 0.0000 -0.8937 0.4486
vn 0.0000 -0.7906 0.6123
vn 0.0000 -0.6667 0.7454
vn 0.0000 -0.5279 0.8493
vn 0.0000 -0.3783 0.9257
vn 0.0000 -0.2198 0.9755
vn 0.0000 -0.0535 0.9986
vn 0.0000 0.1197 0.9928
vn 0.0000 0.2976 0.9547
vn 0.0000 0.4759 0.8795
vn 0.0000 0.6463 0.7631
vn 0.0000 0.7967 0.6043
vn 0.0000 0.9128 0.4084
vn 0.0000 0.9822 0.1879
vn 0.0000 0.9992 -0.0393
vn 0.0000 0.9668 -0.2556
vn 0.0000 0.8495 -0.5276
vn 0.0000 0.7907 -0.6122
vn 0.0000 0.6665 -0.7455
vn 1.0000 0.0000 0.0000
vn 0.0000 0.5279 -0.8493
vn 0.0000 0.3783 -0.9257
vn -1.0000 0.0000 0.0000
vn 0.0000 0.2198 -0.9755
vn 0.0000 -0.2977 -0.9547
vn 0.0000 -0.9328 -0.3603
vn 0.0000 -0.7967 -0.6044
vn 0.0000 -0.9128 -0.4083
vn 0.0000 -0.9822 -0.1878
vn 0.0000 -0.9668 0.2556
vn 0.0000 -0.7907 0.6123
vn 0.0000 -0.6666 0.7454
vn 0.0000 0.2977 0.9547
vn 0.0000 0.9822 0.1878
vn 0.0000 0.9711 0.2387
vn 0.0000 0.7907 -0.6123
vn 0.0000 0.6666 -0.7454
vn 0.0000 -0.3943 -0.9190
vn 0.0000 -0.6462 -0.7632
vn 0.0000 -0.6665 0.7455
vn 0.0000 0.6462 0.7632
vn 0.0000 0.9992 -0.0394
vn 0.0000 0.9667 -0.2557
vn 0.0000 0.8494 -0.5277
vn 0.0000 0.7906 -0.6123
vn 0.0000 0.6667 -0.7454
vn 0.0000 0.5278 -0.8494
vn 0.0000 -0.9668 0.2557
vn 0.0000 -0.2199 0.9755
vn 0.0000 0.7967 0.6044
vn 0.0000 0.9668 -0.2557
s off
f 2/1/1 3/2/1 1/3/1
f 4/4/2 5/5/2 3/2/2
f 6/6/3 7/7/3 5/5/3
f 8/8/4 9/9/4 7/7/4
f 10/10/5 11/11/5 9/9/5
f 12/12/6 13/13/6 11/14/6
f 14/15/7 15/16/7 13/13/7
f 16/17/8 17/18/8 15/16/8
f 18/19/9 19/20/9 17/18/9
f 20/21/10 21/22/10 19/20/10
f 22/23/11 23/24/11 21/22/11
f 24/25/12 25/26/12 23/24/12
f 26/27/13 27/28/13 25/29/13
f 28/30/14 29/31/14 27/28/14
f 30/32/15 31/33/15 29/31/15
f 32/34/16 33/35/16 31/33/16
f 34/36/17 35/37/17 33/35/17
f 36/38/18 37/39/18 35/37/18
f 38/40/19 39/41/19 37/39/19
f 40/42/20 41/43/20 39/41/20
f 42/44/21 43/45/21 41/43/21
f 44/46/22 45/47/22 43/45/22
f 46/48/23 47/49/23 45/47/23
f 48/50/24 49/51/24 47/49/24
f 50/52/25 51/53/25 49/51/25
f 52/54/26 53/55/26 51/53/26
f 54/56/27 55/57/27 53/55/27
f 56/58/28 57/59/28 55/57/28
f 58/60/29 59/61/29 57/62/29
f 60/63/30 61/64/30 59/61/30
f 26/65/31 8/66/31 28/67/31
f 62/68/32 63/69/32 61/64/32
f 64/70/33 1/3/33 63/69/33
f 39/71/34 61/72/34 37/73/34
f 65/74/35 68/75/35 67/76/35
f 68/75/2 69/77/2 67/76/2
f 69/77/3 72/78/3 71/79/3
f 72/78/36 73/80/36 71/79/36
f 74/81/37 75/82/37 73/83/37
f 76/84/6 77/85/6 75/82/6
f 78/86/38 79/87/38 77/85/38
f 80/88/39 81/89/39 79/87/39
f 82/90/40 83/91/40 81/89/40
f 84/92/10 85/93/10 83/91/10
f 86/94/41 87/95/41 85/93/41
f 88/96/12 89/97/12 87/95/12
f 90/98/42 91/99/42 89/100/42
f 92/101/43 93/102/43 91/99/43
f 94/103/15 95/104/15 93/102/15
f 96/105/16 97/106/16 95/104/16
f 98/107/17 99/108/17 97/106/17
f 100/109/18 101/110/18 99/108/18
f 102/111/19 103/112/19 101/110/19
f 104/113/44 105/114/44 103/112/44
f 106/115/21 107/116/21 105/117/21
f 107/116/22 110/118/22 109/119/22
f 110/118/23 111/120/23 109/119/23
f 112/121/24 113/122/24 111/120/24
f 114/123/45 115/124/45 113/122/45
f 116/125/26 117/126/26 115/124/26
f 118/127/27 119/128/27 117/126/27
f 120/129/46 121/130/46 119/128/46
f 122/131/47 123/132/47 121/133/47
f 124/134/48 125/135/48 123/132/48
f 98/136/31 76/137/31 120/138/31
f 126/139/32 127/140/32 125/135/32
f 127/140/33 66/141/33 65/74/33
f 101/142/34 103/143/34 119/144/34
f 2/1/35 4/4/35 3/2/35
f 4/4/2 6/6/2 5/5/2
f 6/6/3 8/8/3 7/7/3
f 8/8/36 10/10/36 9/9/36
f 10/10/49 12/145/49 11/11/49
f 12/12/50 14/15/50 13/13/50
f 14/15/7 16/17/7 15/16/7
f 16/17/8 18/19/8 17/18/8
f 18/19/40 20/21/40 19/20/40
f 20/21/10 22/23/10 21/22/10
f 22/23/41 24/25/41 23/24/41
f 24/25/12 26/146/12 25/26/12
f 26/27/13 28/30/13 27/28/13
f 28/30/51 30/32/51 29/31/51
f 30/32/15 32/34/15 31/33/15
f 32/34/16 34/36/16 33/35/16
f 34/36/17 36/38/17 35/37/17
f 36/38/18 38/40/18 37/39/18
f 38/40/19 40/42/19 39/41/19
f 40/42/20 42/44/20 41/43/20
f 42/44/21 44/46/21 43/45/21
f 44/46/52 46/48/52 45/47/52
f 46/48/23 48/50/23 47/49/23
f 48/50/24 50/52/24 49/51/24
f 50/52/45 52/54/45 51/53/45
f 52/54/53 54/56/53 53/55/53
f 54/56/54 56/58/54 55/57/54
f 56/58/55 58/147/55 57/59/55
f 58/60/56 60/63/56 59/61/56
f 60/63/57 62/68/57 61/64/57
f 6/148/31 4/149/31 32/150/31
f 2/151/31 64/152/31 36/153/31
f 62/154/31 60/155/31 38/156/31
f 58/157/31 56/158/31 54/159/31
f 54/159/31 52/160/31 58/157/31
f 50/161/31 48/162/31 46/163/31
f 46/163/31 44/164/31 58/157/31
f 42/165/31 40/166/31 58/157/31
f 38/156/31 36/153/31 64/152/31
f 34/167/31 32/150/31 4/149/31
f 30/168/31 28/67/31 6/148/31
f 26/65/31 24/169/31 10/170/31
f 22/171/31 20/172/31 18/173/31
f 18/173/31 16/174/31 10/170/31
f 14/175/31 12/176/31 10/170/31
f 10/170/31 8/66/31 26/65/31
f 4/149/31 2/151/31 34/167/31
f 60/155/31 40/166/31 38/156/31
f 52/160/31 50/161/31 58/157/31
f 44/164/31 42/165/31 58/157/31
f 36/153/31 34/167/31 2/151/31
f 28/67/31 8/66/31 6/148/31
f 22/171/31 18/173/31 10/170/31
f 14/175/31 10/170/31 16/174/31
f 64/152/31 62/154/31 38/156/31
f 50/161/31 46/163/31 58/157/31
f 32/150/31 30/168/31 6/148/31
f 22/171/31 10/170/31 24/169/31
f 58/157/31 40/166/31 60/155/31
f 62/68/58 64/70/58 63/69/58
f 64/70/33 2/1/33 1/3/33
f 63/177/34 1/178/34 33/179/34
f 3/180/34 5/181/34 31/182/34
f 7/183/34 9/184/34 25/185/34
f 11/186/34 13/187/34 9/184/34
f 15/188/34 17/189/34 19/190/34
f 19/190/34 21/191/34 9/184/34
f 23/192/34 25/185/34 9/184/34
f 27/193/34 29/194/34 7/183/34
f 31/182/34 33/179/34 1/178/34
f 35/195/34 37/73/34 63/177/34
f 39/71/34 41/196/34 59/197/34
f 43/198/34 45/199/34 57/200/34
f 47/201/34 49/202/34 51/203/34
f 51/203/34 53/204/34 57/200/34
f 55/205/34 57/200/34 53/204/34
f 59/197/34 61/72/34 39/71/34
f 1/178/34 3/180/34 31/182/34
f 9/184/34 13/187/34 15/188/34
f 15/188/34 19/190/34 9/184/34
f 25/185/34 27/193/34 7/183/34
f 33/179/34 35/195/34 63/177/34
f 41/196/34 57/200/34 59/197/34
f 47/201/34 51/203/34 57/200/34
f 57/200/34 45/199/34 47/201/34
f 5/181/34 29/194/34 31/182/34
f 21/191/34 23/192/34 9/184/34
f 37/73/34 61/72/34 63/177/34
f 57/200/34 41/196/34 43/198/34
f 7/183/34 29/194/34 5/181/34
f 65/74/35 66/141/35 68/75/35
f 68/75/2 70/206/2 69/77/2
f 69/77/3 70/206/3 72/78/3
f 72/78/36 74/207/36 73/80/36
f 74/81/37 76/84/37 75/82/37
f 76/84/6 78/86/6 77/85/6
f 78/86/38 80/88/38 79/87/38
f 80/88/8 82/90/8 81/89/8
f 82/90/40 84/92/40 83/91/40
f 84/92/10 86/94/10 85/93/10
f 86/94/59 88/96/59 87/95/59
f 88/96/12 90/208/12 89/97/12
f 90/98/13 92/101/13 91/99/13
f 92/101/43 94/103/43 93/102/43
f 94/103/15 96/105/15 95/104/15
f 96/105/16 98/107/16 97/106/16
f 98/107/60 100/109/60 99/108/60
f 100/109/18 102/111/18 101/110/18
f 102/111/19 104/113/19 103/112/19
f 104/113/20 106/209/20 105/114/20
f 106/115/21 108/210/21 107/116/21
f 107/116/22 108/210/22 110/118/22
f 110/118/61 112/121/61 111/120/61
f 112/121/24 114/123/24 113/122/24
f 114/123/45 116/125/45 115/124/45
f 116/125/26 118/127/26 117/126/26
f 118/127/62 120/129/62 119/128/62
f 120/129/46 122/211/46 121/130/46
f 122/131/56 124/134/56 123/132/56
f 124/134/48 126/139/48 125/135/48
f 70/212/31 68/213/31 74/214/31
f 66/215/31 128/216/31 122/217/31
f 126/218/31 124/219/31 122/217/31
f 120/138/31 118/220/31 110/221/31
f 126/218/31 122/217/31 128/216/31
f 68/213/31 66/215/31 74/214/31
f 74/214/31 72/222/31 70/212/31
f 80/223/31 78/224/31 86/225/31
f 76/137/31 74/214/31 120/138/31
f 66/215/31 122/217/31 74/214/31
f 118/220/31 116/226/31 110/221/31
f 114/227/31 112/228/31 110/221/31
f 110/221/31 108/229/31 120/138/31
f 106/230/31 104/231/31 120/138/31
f 102/232/31 100/233/31 120/138/31
f 98/136/31 96/234/31 76/137/31
f 94/235/31 92/236/31 76/137/31
f 90/237/31 88/238/31 76/137/31
f 86/225/31 84/239/31 82/240/31
f 82/240/31 80/223/31 86/225/31
f 74/214/31 122/217/31 120/138/31
f 116/226/31 114/227/31 110/221/31
f 108/229/31 106/230/31 120/138/31
f 100/233/31 98/136/31 120/138/31
f 92/236/31 90/237/31 76/137/31
f 86/225/31 78/224/31 76/137/31
f 76/137/31 96/234/31 94/235/31
f 104/231/31 102/232/31 120/138/31
f 88/238/31 86/225/31 76/137/31
f 126/139/32 128/241/32 127/140/32
f 127/140/33 128/241/33 66/141/33
f 127/242/34 65/243/34 121/244/34
f 67/245/34 69/246/34 73/247/34
f 71/248/34 73/247/34 69/246/34
f 75/249/34 77/250/34 85/251/34
f 79/252/34 81/253/34 83/254/34
f 83/254/34 85/251/34 77/250/34
f 87/255/34 89/256/34 75/249/34
f 91/257/34 93/258/34 75/249/34
f 95/259/34 97/260/34 75/249/34
f 99/261/34 101/142/34 119/144/34
f 103/143/34 105/262/34 119/144/34
f 107/263/34 109/264/34 119/144/34
f 111/265/34 113/266/34 115/267/34
f 115/267/34 117/268/34 111/265/34
f 119/144/34 121/244/34 73/247/34
f 123/269/34 125/270/34 121/244/34
f 65/243/34 67/245/34 73/247/34
f 77/250/34 79/252/34 83/254/34
f 127/242/34 121/244/34 125/270/34
f 121/244/34 65/243/34 73/247/34
f 111/265/34 117/268/34 109/264/34
f 105/262/34 107/263/34 119/144/34
f 97/260/34 99/261/34 119/144/34
f 89/256/34 91/257/34 75/249/34
f 75/249/34 85/251/34 87/255/34
f 119/144/34 73/247/34 75/249/34
f 109/264/34 117/268/34 119/144/34
f 93/258/34 95/259/34 75/249/34
f 119/144/34 75/249/34 97/260/34
