# Blender v2.78 (sub 0) OBJ File: ''
# www.blender.org
o aTorus.006_Cylinder.017
v 0.030823 0.914194 -0.073455
v -0.028568 0.914194 -0.073455
v 0.030823 0.915243 -0.073286
v -0.028568 0.915243 -0.073286
v 0.030823 0.916300 -0.073311
v -0.028568 0.916300 -0.073311
v 0.030823 0.917323 -0.073527
v -0.028568 0.917323 -0.073527
v 0.030823 0.918274 -0.073928
v -0.028568 0.918274 -0.073928
v 0.030823 0.919084 -0.074374
v -0.028568 0.919084 -0.074374
v 0.030823 0.919784 -0.075090
v -0.028568 0.919784 -0.075090
v 0.030823 0.920316 -0.075924
v -0.028568 0.920316 -0.075924
v 0.030823 0.920659 -0.076846
v -0.028568 0.920659 -0.076846
v 0.030823 0.920800 -0.077819
v -0.028568 0.920800 -0.077819
v 0.030823 0.920734 -0.078807
v -0.028568 0.920734 -0.078807
v 0.030823 0.920463 -0.079770
v -0.028568 0.920463 -0.079770
v 0.030823 0.919998 -0.080673
v -0.028568 0.919998 -0.080673
v 0.030823 0.919356 -0.081481
v -0.028568 0.919356 -0.081481
v 0.030823 0.918563 -0.082162
v -0.028568 0.918563 -0.082162
v 0.030823 0.917647 -0.082690
v -0.028568 0.917647 -0.082690
v 0.030823 0.916646 -0.083046
v -0.028568 0.916646 -0.083046
v 0.030823 0.915597 -0.083214
v -0.028568 0.915597 -0.083214
v 0.030823 0.914541 -0.083190
v -0.028568 0.914541 -0.083190
v 0.030823 0.913518 -0.082974
v -0.028568 0.913518 -0.082974
v 0.030823 0.912567 -0.082573
v -0.028568 0.912567 -0.082573
v 0.030823 0.911725 -0.082004
v -0.028568 0.911725 -0.082004
v 0.030823 0.911025 -0.081289
v -0.028568 0.911025 -0.081289
v 0.030823 0.910493 -0.080454
v -0.028568 0.910493 -0.080454
v 0.030823 0.910150 -0.079533
v -0.028568 0.910150 -0.079533
v 0.030823 0.910009 -0.078559
v -0.028568 0.910009 -0.078559
v 0.030823 0.910075 -0.077572
v -0.028568 0.910075 -0.077572
v 0.030823 0.910346 -0.076608
v -0.028568 0.910346 -0.076608
v 0.030823 0.910843 -0.075827
v -0.028568 0.910843 -0.075827
v 0.030823 0.911484 -0.075020
v -0.028568 0.911484 -0.075020
v 0.030823 0.912278 -0.074339
v -0.028568 0.912278 -0.074339
v 0.030823 0.913193 -0.073810
v -0.028568 0.913193 -0.073810
v 0.016019 0.902276 -0.053859
v -0.015465 0.902276 -0.053859
v 0.016019 0.904167 -0.053555
v -0.015465 0.904167 -0.053555
v 0.016019 0.906071 -0.053599
v -0.015465 0.906071 -0.053599
v 0.016019 0.907916 -0.053989
v -0.015465 0.907916 -0.053989
v 0.016019 0.909630 -0.054711
v -0.015465 0.909630 -0.054711
v 0.016019 0.915959 -0.074558
v -0.015466 0.915959 -0.074558
v 0.016019 0.917221 -0.075847
v -0.015466 0.917221 -0.075847
v 0.016019 0.918180 -0.077352
v -0.015466 0.918180 -0.077352
v 0.016019 0.918798 -0.079013
v -0.015466 0.918798 -0.079013
v 0.016019 0.919053 -0.080768
v -0.015466 0.919053 -0.080768
v 0.016019 0.918934 -0.082548
v -0.015466 0.918934 -0.082548
v 0.016019 0.918445 -0.084285
v -0.015466 0.918445 -0.084285
v 0.016019 0.917607 -0.085913
v -0.015466 0.917607 -0.085913
v 0.016019 0.916450 -0.087369
v -0.015466 0.916450 -0.087369
v 0.016019 0.915019 -0.088597
v -0.015466 0.915019 -0.088597
v 0.016019 0.913369 -0.089549
v -0.015465 0.913369 -0.089549
v 0.016019 0.911564 -0.090190
v -0.015465 0.911564 -0.090190
v 0.016019 0.909673 -0.090494
v -0.015465 0.909673 -0.090494
v 0.016019 0.907769 -0.090450
v -0.015465 0.907769 -0.090450
v 0.016019 0.905925 -0.090060
v -0.015465 0.905925 -0.090060
v 0.016019 0.904211 -0.089338
v -0.015465 0.904211 -0.089338
v 0.016019 0.902694 -0.088312
v -0.015465 0.902694 -0.088312
v 0.016019 0.901432 -0.087023
v -0.015465 0.901432 -0.087023
v 0.016019 0.900473 -0.085518
v -0.015465 0.900473 -0.085518
v 0.016019 0.899854 -0.083857
v -0.015465 0.899854 -0.083857
v 0.016019 0.899599 -0.082102
v -0.015465 0.899599 -0.082102
v 0.016019 0.899719 -0.080322
v -0.015465 0.899719 -0.080322
v 0.016019 0.900207 -0.078585
v -0.015465 0.900207 -0.078585
v 0.016019 0.896234 -0.058135
v -0.015465 0.896234 -0.058135
v 0.016019 0.897391 -0.056680
v -0.015465 0.897391 -0.056680
v 0.016019 0.898822 -0.055452
v -0.015465 0.898822 -0.055452
v 0.016019 0.900471 -0.054500
v -0.015465 0.900471 -0.054500
vt 0.7181 0.0000
vt 0.7293 0.6535
vt 0.7181 0.6535
vt 0.7293 0.0000
vt 0.7403 0.6535
vt 0.7403 0.0000
vt 0.7506 0.6535
vt 0.7506 0.0000
vt 0.7600 0.6535
vt 0.7600 0.0000
vt 0.7678 0.6535
vt 1.0000 0.6535
vt 0.9901 0.0000
vt 1.0000 0.0000
vt 0.9901 0.6535
vt 0.9793 0.0000
vt 0.9793 0.6535
vt 0.9682 0.0000
vt 0.9682 0.6535
vt 0.9570 0.0000
vt 0.9570 0.6535
vt 0.9463 0.0000
vt 0.9463 0.6535
vt 0.9364 0.0000
vt 0.9364 0.6535
vt 0.9278 0.0000
vt 0.7678 0.0000
vt 0.7757 0.6535
vt 0.7678 0.6535
vt 0.7757 0.0000
vt 0.7850 0.6535
vt 0.7850 0.0000
vt 0.7954 0.6535
vt 0.7954 0.0000
vt 0.8064 0.6535
vt 0.8064 0.0000
vt 0.8176 0.6535
vt 0.8176 0.0000
vt 0.8286 0.6535
vt 0.8286 0.0000
vt 0.8390 0.6535
vt 0.8390 0.0000
vt 0.8483 0.6535
vt 0.8483 0.0000
vt 0.8569 0.6535
vt 0.8569 0.0000
vt 0.8668 0.6535
vt 0.8668 0.0000
vt 0.8775 0.6535
vt 0.8775 0.0000
vt 0.8887 0.6535
vt 0.8887 0.0000
vt 0.8999 0.6535
vt 0.8999 0.0000
vt 0.9106 0.6535
vt 0.9106 0.0000
vt 0.9205 0.6535
vt 0.9205 0.0000
vt 0.9278 0.6535
vt 0.6794 0.0000
vt 0.6874 0.6535
vt 0.6794 0.6535
vt 0.6874 0.0000
vt 0.6967 0.6535
vt 0.6476 0.4781
vt 0.5623 0.4607
vt 0.6556 0.4700
vt 0.6967 0.0000
vt 0.7071 0.6535
vt 0.7071 0.0000
vt 0.5623 0.5217
vt 0.6618 0.5218
vt 0.5580 0.5322
vt 0.7491 0.6535
vt 0.7693 1.0000
vt 0.7491 1.0000
vt 0.7693 0.6535
vt 0.7891 1.0000
vt 0.7891 0.6535
vt 0.8078 1.0000
vt 0.8078 0.6535
vt 0.8246 1.0000
vt 0.6794 0.0000
vt 0.3397 0.2422
vt 0.3397 0.0000
vt 0.6794 0.2422
vt 0.3397 0.2604
vt 0.6794 0.2604
vt 0.3397 0.2802
vt 0.6794 0.2802
vt 0.3397 0.3007
vt 0.6794 0.3007
vt 0.3397 0.3212
vt 0.6794 0.3409
vt 0.3397 0.3409
vt 0.3397 0.3591
vt 0.6794 0.3591
vt 0.3397 0.3749
vt 0.5558 0.7214
vt 0.5415 0.3749
vt 0.5558 0.3749
vt 0.5415 0.7214
vt 0.5247 0.3749
vt 0.5247 0.7214
vt 0.5060 0.3749
vt 0.5060 0.7214
vt 0.4862 0.3749
vt 0.4862 0.7214
vt 0.4660 0.3749
vt 0.4660 0.7214
vt 0.4461 0.3749
vt 0.4461 0.7214
vt 0.4274 0.3749
vt 0.4274 0.7214
vt 0.4106 0.3749
vt 0.0000 0.3749
vt 0.3397 0.3591
vt 0.3397 0.3749
vt 0.0000 0.3591
vt 0.3397 0.3409
vt 0.0000 0.3409
vt 0.3397 0.3212
vt 0.0000 0.3212
vt 0.3397 0.3007
vt 0.0000 0.3007
vt 0.3397 0.2802
vt 0.0000 0.2802
vt 0.3397 0.2604
vt 0.0000 0.2604
vt 0.3397 0.2422
vt 0.0000 0.2422
vt 0.3397 0.0000
vt 0.6794 0.6535
vt 0.6937 1.0000
vt 0.6794 1.0000
vt 0.6937 0.6535
vt 0.7105 1.0000
vt 0.0925 0.8094
vt 0.0229 0.6380
vt 0.1936 0.6551
vt 0.7105 0.6535
vt 0.7292 1.0000
vt 0.7292 0.6535
vt 0.3379 0.3790
vt 0.3566 0.3869
vt 0.3989 0.5292
vt 0.7678 0.0000
vt 0.9278 0.6535
vt 0.9278 0.0000
vt 0.5580 0.4501
vt 0.5558 0.4389
vt 0.6661 0.4500
vt 0.5558 0.4274
vt 0.5580 0.4162
vt 0.6683 0.4273
vt 0.5623 0.4057
vt 0.5685 0.3961
vt 0.6661 0.4161
vt 0.5765 0.3881
vt 0.5843 0.3816
vt 0.5947 0.3772
vt 0.6057 0.3749
vt 0.6169 0.3749
vt 0.6279 0.3772
vt 0.6383 0.3816
vt 0.6476 0.3879
vt 0.6556 0.3960
vt 0.6618 0.4055
vt 0.6683 0.4387
vt 0.6618 0.4605
vt 0.6383 0.4845
vt 0.5685 0.4702
vt 0.6279 0.4889
vt 0.6169 0.4911
vt 0.6057 0.4911
vt 0.5947 0.4889
vt 0.5843 0.4845
vt 0.5750 0.4781
vt 0.6661 0.5324
vt 0.6683 0.5436
vt 0.5558 0.5549
vt 0.6683 0.5550
vt 0.6661 0.5663
vt 0.5580 0.5661
vt 0.6618 0.5768
vt 0.6556 0.5863
vt 0.5765 0.5943
vt 0.6491 0.5943
vt 0.6397 0.6006
vt 0.6294 0.6050
vt 0.6184 0.6073
vt 0.6071 0.6073
vt 0.5961 0.6050
vt 0.5858 0.6006
vt 0.5685 0.5862
vt 0.5623 0.5767
vt 0.5558 0.5435
vt 0.5685 0.5122
vt 0.6556 0.5123
vt 0.5765 0.5041
vt 0.5858 0.4977
vt 0.6476 0.5042
vt 0.5961 0.4933
vt 0.6071 0.4911
vt 0.6184 0.4911
vt 0.6294 0.4933
vt 0.6397 0.4977
vt 0.8246 0.6535
vt 0.6794 0.3212
vt 0.6794 0.3749
vt 0.4106 0.7214
vt 0.0000 0.0000
vt 0.0944 0.3790
vt 0.1143 0.3749
vt 0.0590 0.3983
vt 0.1345 0.3749
vt 0.1543 0.3790
vt 0.2041 0.4129
vt 0.1730 0.3869
vt 0.1898 0.3983
vt 0.2014 0.6742
vt 0.1936 0.7543
vt 0.0758 0.3869
vt 0.0039 0.6742
vt 0.0117 0.6551
vt 0.0039 0.7353
vt 0.2053 0.6944
vt 0.2053 0.7150
vt 0.2014 0.7353
vt 0.1824 0.7715
vt 0.1681 0.7860
vt 0.1513 0.7975
vt 0.1326 0.8054
vt 0.1128 0.8094
vt 0.0727 0.8054
vt 0.0540 0.7975
vt 0.0372 0.7860
vt 0.0229 0.7715
vt 0.0117 0.7543
vt 0.0000 0.7150
vt 0.0000 0.6944
vt 0.3597 0.8054
vt 0.3398 0.8094
vt 0.4094 0.7715
vt 0.3196 0.8094
vt 0.2998 0.8054
vt 0.2643 0.7860
vt 0.2811 0.7975
vt 0.2282 0.5464
vt 0.2170 0.5292
vt 0.2053 0.4693
vt 0.2093 0.5102
vt 0.2053 0.4900
vt 0.2093 0.4491
vt 0.2170 0.4300
vt 0.2282 0.4129
vt 0.2425 0.3983
vt 0.2593 0.3869
vt 0.2780 0.3790
vt 0.2979 0.3749
vt 0.3181 0.3749
vt 0.3734 0.3983
vt 0.3877 0.4129
vt 0.3989 0.4300
vt 0.4067 0.4491
vt 0.4106 0.4693
vt 0.4106 0.4899
vt 0.4067 0.5102
vt 0.3951 0.7860
vt 0.3783 0.7975
vn 0.0000 0.1588 -0.9873
vn 0.0000 -0.0231 -0.9997
vn 0.0000 -0.2071 -0.9783
vn 0.0000 -0.3882 -0.9216
vn 0.0000 -0.4826 -0.8758
vn 0.0000 -0.7148 -0.6993
vn 0.0000 -0.8433 -0.5375
vn 0.0000 -0.9371 -0.3490
vn 0.0000 -0.9896 -0.1436
vn 0.0000 -0.9978 0.0669
vn 0.0000 -0.9627 0.2706
vn 0.0000 -0.8889 0.4581
vn 0.0000 -0.7829 0.6222
vn 0.0000 -0.6512 0.7589
vn 0.0000 -0.5000 0.8660
vn 0.0000 -0.3344 0.9424
vn 0.0000 -0.1588 0.9873
vn 0.0000 0.0231 0.9997
vn 0.0000 0.2071 0.9783
vn 0.0000 0.3882 0.9216
vn 0.0000 0.5600 0.8285
vn 0.0000 0.7147 0.6995
vn 0.0000 0.8433 0.5375
vn 0.0000 0.9372 0.3489
vn 0.0000 0.9896 0.1436
vn 0.0000 0.9978 -0.0667
vn 0.0000 0.9627 -0.2707
vn 0.0000 0.8438 -0.5367
vn 0.0000 0.7829 -0.6222
vn 0.0000 0.6512 -0.7589
vn 1.0000 0.0000 0.0000
vn 0.0000 0.5000 -0.8660
vn 0.0000 0.3345 -0.9424
vn -1.0000 0.0000 0.0000
vn 0.0000 -0.9527 -0.3038
vn 0.0000 -0.7147 -0.6995
vn 0.0000 -0.9372 -0.3489
vn 0.0000 -0.9978 0.0668
vn 0.0000 -0.8889 0.4580
vn 0.0000 -0.7828 0.6222
vn 0.0000 -0.3345 0.9424
vn 0.0000 0.2070 0.9783
vn 0.0000 0.7146 0.6995
vn 0.0000 0.9371 0.3490
vn 0.0000 0.9627 -0.2706
vn 0.0000 0.9816 0.1907
vn 0.0000 0.7828 -0.6222
vn 0.0000 0.5001 -0.8660
vn 0.0000 -0.9627 0.2707
vn 0.0000 0.9978 -0.0668
vn 0.0000 0.8437 -0.5368
vn 0.0000 0.7828 -0.6223
vn 0.0000 -0.0230 -0.9997
vn 0.0000 -0.7147 -0.6994
vn 0.0000 -0.8433 -0.5374
vn 0.0000 -0.9978 0.0667
vn 0.0000 -0.9627 0.2705
vn 0.0000 -0.5001 0.8660
vn 0.0000 0.7148 0.6994
s off
f 2/1/1 3/2/1 1/3/1
f 4/4/2 5/5/2 3/2/2
f 6/6/3 7/7/3 5/5/3
f 8/8/4 9/9/4 7/7/4
f 10/10/5 11/11/5 9/9/5
f 12/12/6 13/13/6 11/14/6
f 14/15/7 15/16/7 13/13/7
f 16/17/8 17/18/8 15/16/8
f 18/19/9 19/20/9 17/18/9
f 20/21/10 21/22/10 19/20/10
f 22/23/11 23/24/11 21/22/11
f 24/25/12 25/26/12 23/24/12
f 26/27/13 27/28/13 25/29/13
f 28/30/14 29/31/14 27/28/14
f 30/32/15 31/33/15 29/31/15
f 32/34/16 33/35/16 31/33/16
f 34/36/17 35/37/17 33/35/17
f 36/38/18 37/39/18 35/37/18
f 38/40/19 39/41/19 37/39/19
f 40/42/20 41/43/20 39/41/20
f 42/44/21 43/45/21 41/43/21
f 44/46/22 45/47/22 43/45/22
f 46/48/23 47/49/23 45/47/23
f 48/50/24 49/51/24 47/49/24
f 50/52/25 51/53/25 49/51/25
f 52/54/26 53/55/26 51/53/26
f 54/56/27 55/57/27 53/55/27
f 56/58/28 57/59/28 55/57/28
f 58/60/29 59/61/29 57/62/29
f 60/63/30 61/64/30 59/61/30
f 26/65/31 8/66/31 28/67/31
f 62/68/32 63/69/32 61/64/32
f 64/70/33 1/3/33 63/69/33
f 39/71/34 61/72/34 37/73/34
f 66/74/1 67/75/1 65/76/1
f 68/77/2 69/78/2 67/75/2
f 70/79/3 71/80/3 69/78/3
f 72/81/4 73/82/4 71/80/4
f 74/83/35 75/84/35 73/85/35
f 76/86/36 77/87/36 75/84/36
f 78/88/7 79/89/7 77/87/7
f 80/90/37 81/91/37 79/89/37
f 82/92/9 83/93/9 81/91/9
f 83/93/38 86/94/38 85/95/38
f 86/94/11 87/96/11 85/95/11
f 88/97/39 89/98/39 87/96/39
f 90/99/40 91/100/40 89/101/40
f 92/102/14 93/103/14 91/100/14
f 94/104/15 95/105/15 93/103/15
f 96/106/41 97/107/41 95/105/41
f 98/108/17 99/109/17 97/107/17
f 100/110/18 101/111/18 99/109/18
f 102/112/42 103/113/42 101/111/42
f 104/114/20 105/115/20 103/113/20
f 106/116/21 107/117/21 105/118/21
f 108/119/43 109/120/43 107/117/43
f 110/121/23 111/122/23 109/120/23
f 112/123/44 113/124/44 111/122/44
f 114/125/25 115/126/25 113/124/25
f 116/127/26 117/128/26 115/126/26
f 118/129/45 119/130/45 117/128/45
f 120/131/46 121/132/46 119/130/46
f 122/133/47 123/134/47 121/135/47
f 124/136/30 125/137/30 123/134/30
f 98/138/31 76/139/31 120/140/31
f 126/141/48 127/142/48 125/137/48
f 128/143/33 65/76/33 127/142/33
f 101/144/34 103/145/34 119/146/34
f 2/1/1 4/4/1 3/2/1
f 4/4/2 6/6/2 5/5/2
f 6/6/3 8/8/3 7/7/3
f 8/8/4 10/10/4 9/9/4
f 10/10/5 12/147/5 11/11/5
f 12/12/36 14/15/36 13/13/36
f 14/15/7 16/17/7 15/16/7
f 16/17/8 18/19/8 17/18/8
f 18/19/9 20/21/9 19/20/9
f 20/21/38 22/23/38 21/22/38
f 22/23/49 24/25/49 23/24/49
f 24/25/12 26/148/12 25/26/12
f 26/27/13 28/30/13 27/28/13
f 28/30/14 30/32/14 29/31/14
f 30/32/15 32/34/15 31/33/15
f 32/34/41 34/36/41 33/35/41
f 34/36/17 36/38/17 35/37/17
f 36/38/18 38/40/18 37/39/18
f 38/40/19 40/42/19 39/41/19
f 40/42/20 42/44/20 41/43/20
f 42/44/21 44/46/21 43/45/21
f 44/46/22 46/48/22 45/47/22
f 46/48/23 48/50/23 47/49/23
f 48/50/24 50/52/24 49/51/24
f 50/52/25 52/54/25 51/53/25
f 52/54/50 54/56/50 53/55/50
f 54/56/27 56/58/27 55/57/27
f 56/58/51 58/149/51 57/59/51
f 58/60/52 60/63/52 59/61/52
f 60/63/30 62/68/30 61/64/30
f 6/150/31 4/151/31 32/152/31
f 2/153/31 64/154/31 36/155/31
f 62/156/31 60/157/31 38/158/31
f 58/159/31 56/160/31 54/161/31
f 54/161/31 52/162/31 58/159/31
f 50/163/31 48/164/31 58/159/31
f 46/165/31 44/166/31 58/159/31
f 42/167/31 40/168/31 58/159/31
f 38/158/31 36/155/31 64/154/31
f 34/169/31 32/152/31 4/151/31
f 30/170/31 28/67/31 6/150/31
f 26/65/31 24/171/31 10/172/31
f 22/173/31 20/174/31 10/172/31
f 18/175/31 16/176/31 10/172/31
f 14/177/31 12/178/31 10/172/31
f 10/172/31 8/66/31 26/65/31
f 4/151/31 2/153/31 34/169/31
f 60/157/31 40/168/31 38/158/31
f 52/162/31 50/163/31 58/159/31
f 44/166/31 42/167/31 58/159/31
f 36/155/31 34/169/31 2/153/31
f 28/67/31 8/66/31 6/150/31
f 20/174/31 18/175/31 10/172/31
f 14/177/31 10/172/31 16/176/31
f 64/154/31 62/156/31 38/158/31
f 48/164/31 46/165/31 58/159/31
f 32/152/31 30/170/31 6/150/31
f 22/173/31 10/172/31 24/171/31
f 58/159/31 40/168/31 60/157/31
f 62/68/32 64/70/32 63/69/32
f 64/70/33 2/1/33 1/3/33
f 63/179/34 1/180/34 33/181/34
f 3/182/34 5/183/34 31/184/34
f 7/185/34 9/186/34 25/187/34
f 11/188/34 13/189/34 9/186/34
f 15/190/34 17/191/34 9/186/34
f 19/192/34 21/193/34 9/186/34
f 23/194/34 25/187/34 9/186/34
f 27/195/34 29/196/34 7/185/34
f 31/184/34 33/181/34 1/180/34
f 35/197/34 37/73/34 63/179/34
f 39/71/34 41/198/34 59/199/34
f 43/200/34 45/201/34 57/202/34
f 47/203/34 49/204/34 57/202/34
f 51/205/34 53/206/34 57/202/34
f 55/207/34 57/202/34 53/206/34
f 59/199/34 61/72/34 39/71/34
f 1/180/34 3/182/34 31/184/34
f 9/186/34 13/189/34 15/190/34
f 17/191/34 19/192/34 9/186/34
f 25/187/34 27/195/34 7/185/34
f 33/181/34 35/197/34 63/179/34
f 41/198/34 57/202/34 59/199/34
f 49/204/34 51/205/34 57/202/34
f 57/202/34 45/201/34 47/203/34
f 5/183/34 29/196/34 31/184/34
f 21/193/34 23/194/34 9/186/34
f 37/73/34 61/72/34 63/179/34
f 57/202/34 41/198/34 43/200/34
f 7/185/34 29/196/34 5/183/34
f 66/74/1 68/77/1 67/75/1
f 68/77/53 70/79/53 69/78/53
f 70/79/3 72/81/3 71/80/3
f 72/81/4 74/208/4 73/82/4
f 74/83/35 76/86/35 75/84/35
f 76/86/54 78/88/54 77/87/54
f 78/88/55 80/90/55 79/89/55
f 80/90/8 82/92/8 81/91/8
f 82/92/9 84/209/9 83/93/9
f 83/93/56 84/209/56 86/94/56
f 86/94/57 88/97/57 87/96/57
f 88/97/12 90/210/12 89/98/12
f 90/99/40 92/102/40 91/100/40
f 92/102/14 94/104/14 93/103/14
f 94/104/58 96/106/58 95/105/58
f 96/106/41 98/108/41 97/107/41
f 98/108/17 100/110/17 99/109/17
f 100/110/18 102/112/18 101/111/18
f 102/112/19 104/114/19 103/113/19
f 104/114/20 106/211/20 105/115/20
f 106/116/21 108/119/21 107/117/21
f 108/119/59 110/121/59 109/120/59
f 110/121/23 112/123/23 111/122/23
f 112/123/24 114/125/24 113/124/24
f 114/125/25 116/127/25 115/126/25
f 116/127/50 118/129/50 117/128/50
f 118/129/45 120/131/45 119/130/45
f 120/131/46 122/212/46 121/132/46
f 122/133/47 124/136/47 123/134/47
f 124/136/30 126/141/30 125/137/30
f 70/213/31 68/214/31 74/215/31
f 66/216/31 128/217/31 122/218/31
f 126/219/31 124/220/31 122/218/31
f 120/140/31 118/221/31 110/222/31
f 126/219/31 122/218/31 128/217/31
f 68/214/31 66/216/31 74/215/31
f 74/215/31 72/223/31 70/213/31
f 80/224/31 78/225/31 86/226/31
f 76/139/31 74/215/31 120/140/31
f 66/216/31 122/218/31 74/215/31
f 118/221/31 116/227/31 110/222/31
f 114/228/31 112/229/31 110/222/31
f 110/222/31 108/230/31 120/140/31
f 106/231/31 104/232/31 120/140/31
f 102/233/31 100/234/31 120/140/31
f 98/138/31 96/235/31 76/139/31
f 94/236/31 92/237/31 76/139/31
f 90/238/31 88/239/31 76/139/31
f 86/226/31 84/240/31 82/241/31
f 82/241/31 80/224/31 86/226/31
f 74/215/31 122/218/31 120/140/31
f 116/227/31 114/228/31 110/222/31
f 108/230/31 106/231/31 120/140/31
f 100/234/31 98/138/31 120/140/31
f 92/237/31 90/238/31 76/139/31
f 86/226/31 78/225/31 76/139/31
f 76/139/31 96/235/31 94/236/31
f 104/232/31 102/233/31 120/140/31
f 88/239/31 86/226/31 76/139/31
f 126/141/32 128/143/32 127/142/32
f 128/143/33 66/74/33 65/76/33
f 127/242/34 65/243/34 121/244/34
f 67/245/34 69/246/34 73/247/34
f 71/248/34 73/247/34 69/246/34
f 75/249/34 77/250/34 83/251/34
f 79/252/34 81/253/34 83/251/34
f 83/251/34 85/254/34 75/249/34
f 87/255/34 89/256/34 75/249/34
f 91/257/34 93/258/34 75/249/34
f 95/259/34 97/260/34 75/249/34
f 99/261/34 101/144/34 119/146/34
f 103/145/34 105/262/34 119/146/34
f 107/263/34 109/264/34 119/146/34
f 111/265/34 113/266/34 115/267/34
f 115/267/34 117/268/34 111/265/34
f 119/146/34 121/244/34 73/247/34
f 123/269/34 125/270/34 121/244/34
f 65/243/34 67/245/34 73/247/34
f 77/250/34 79/252/34 83/251/34
f 127/242/34 121/244/34 125/270/34
f 121/244/34 65/243/34 73/247/34
f 111/265/34 117/268/34 119/146/34
f 105/262/34 107/263/34 119/146/34
f 97/260/34 99/261/34 119/146/34
f 89/256/34 91/257/34 75/249/34
f 75/249/34 85/254/34 87/255/34
f 119/146/34 73/247/34 75/249/34
f 109/264/34 111/265/34 119/146/34
f 93/258/34 95/259/34 75/249/34
f 119/146/34 75/249/34 97/260/34
