# Blender v2.78 (sub 0) OBJ File: ''
# www.blender.org
o aTorus.007_Cylinder.016
v 0.030823 0.894260 -0.078146
v -0.028568 0.894260 -0.078146
v 0.030823 0.895301 -0.078183
v -0.028568 0.895301 -0.078183
v 0.030823 0.896316 -0.078433
v -0.028568 0.896316 -0.078433
v 0.030823 0.897266 -0.078883
v -0.028568 0.897266 -0.078883
v 0.030823 0.898115 -0.079519
v -0.028568 0.898115 -0.079519
v 0.030823 0.898820 -0.080174
v -0.028568 0.898820 -0.080174
v 0.030823 0.899373 -0.081099
v -0.028568 0.899373 -0.081099
v 0.030823 0.899744 -0.082117
v -0.028568 0.899744 -0.082117
v 0.030823 0.899917 -0.083190
v -0.028568 0.899917 -0.083190
v 0.030823 0.899887 -0.084277
v -0.028568 0.899887 -0.084277
v 0.030823 0.899654 -0.085335
v -0.028568 0.899654 -0.085335
v 0.030823 0.899228 -0.086324
v -0.028568 0.899228 -0.086324
v 0.030823 0.898624 -0.087207
v -0.028568 0.898624 -0.087207
v 0.030823 0.897867 -0.087948
v -0.028568 0.897867 -0.087948
v 0.030823 0.896984 -0.088521
v -0.028568 0.896984 -0.088521
v 0.030823 0.896011 -0.088901
v -0.028568 0.896011 -0.088901
v 0.030823 0.894984 -0.089076
v -0.028568 0.894984 -0.089076
v 0.030823 0.893944 -0.089038
v -0.028568 0.893944 -0.089038
v 0.030823 0.892929 -0.088789
v -0.028568 0.892929 -0.088789
v 0.030823 0.891978 -0.088339
v -0.028568 0.891978 -0.088339
v 0.030823 0.891130 -0.087703
v -0.028568 0.891130 -0.087703
v 0.030823 0.890415 -0.086908
v -0.028568 0.890415 -0.086908
v 0.030823 0.889862 -0.085984
v -0.028568 0.889862 -0.085984
v 0.030823 0.889492 -0.084965
v -0.028568 0.889492 -0.084965
v 0.030823 0.889318 -0.083892
v -0.028568 0.889318 -0.083892
v 0.030823 0.889349 -0.082806
v -0.028568 0.889349 -0.082806
v 0.030823 0.889581 -0.081747
v -0.028568 0.889581 -0.081747
v 0.030823 0.890008 -0.080758
v -0.028568 0.890008 -0.080758
v 0.030823 0.890620 -0.080015
v -0.028568 0.890620 -0.080015
v 0.030823 0.891378 -0.079273
v -0.028568 0.891378 -0.079273
v 0.030823 0.892260 -0.078701
v -0.028568 0.892260 -0.078701
v 0.030823 0.893233 -0.078320
v -0.028568 0.893233 -0.078320
v 0.016019 0.886115 -0.054355
v -0.015465 0.886115 -0.054355
v 0.016019 0.887992 -0.054423
v -0.015465 0.887992 -0.054423
v 0.016019 0.889822 -0.054872
v -0.015465 0.889822 -0.054872
v 0.016019 0.891534 -0.055685
v -0.015465 0.891534 -0.055685
v 0.016019 0.893064 -0.056830
v -0.015465 0.893064 -0.056830
v 0.016019 0.895774 -0.079715
v -0.015466 0.895774 -0.079715
v 0.016019 0.896771 -0.081381
v -0.015466 0.896771 -0.081381
v 0.016019 0.897438 -0.083217
v -0.015466 0.897438 -0.083217
v 0.016019 0.897751 -0.085152
v -0.015466 0.897751 -0.085152
v 0.016019 0.897696 -0.087110
v -0.015466 0.897696 -0.087110
v 0.016019 0.897277 -0.089018
v -0.015466 0.897277 -0.089018
v 0.016019 0.896508 -0.090802
v -0.015466 0.896508 -0.090802
v 0.016019 0.895420 -0.092392
v -0.015466 0.895420 -0.092392
v 0.016019 0.894055 -0.093729
v -0.015466 0.894055 -0.093729
v 0.016019 0.892464 -0.094761
v -0.015466 0.892464 -0.094761
v 0.016019 0.890710 -0.095447
v -0.015465 0.890710 -0.095447
v 0.016019 0.888859 -0.095762
v -0.015465 0.888859 -0.095762
v 0.016019 0.886983 -0.095694
v -0.015465 0.886983 -0.095694
v 0.016019 0.885153 -0.095245
v -0.015465 0.885153 -0.095245
v 0.016019 0.883440 -0.094433
v -0.015465 0.883440 -0.094433
v 0.016019 0.881910 -0.093288
v -0.015465 0.881910 -0.093288
v 0.016019 0.880622 -0.091854
v -0.015465 0.880622 -0.091854
v 0.016019 0.879625 -0.090188
v -0.015465 0.879625 -0.090188
v 0.016019 0.878957 -0.088352
v -0.015465 0.878957 -0.088352
v 0.016019 0.878645 -0.086417
v -0.015465 0.878645 -0.086417
v 0.016019 0.878699 -0.084459
v -0.015465 0.878699 -0.084459
v 0.016019 0.879119 -0.082551
v -0.015465 0.879119 -0.082551
v 0.016019 0.879888 -0.080767
v -0.015465 0.879888 -0.080767
v 0.016019 0.879554 -0.057725
v -0.015465 0.879554 -0.057725
v 0.016019 0.880920 -0.056388
v -0.015465 0.880920 -0.056388
v 0.016019 0.882510 -0.055357
v -0.015465 0.882510 -0.055357
v 0.016019 0.884265 -0.054670
v -0.015465 0.884265 -0.054670
vt 0.7181 0.0000
vt 0.7293 0.6535
vt 0.7181 0.6535
vt 0.7293 0.0000
vt 0.7403 0.6535
vt 0.7403 0.0000
vt 0.7506 0.6535
vt 0.7506 0.0000
vt 0.7600 0.6535
vt 0.7600 0.0000
vt 0.7678 0.6535
vt 1.0000 0.6535
vt 0.9901 0.0000
vt 1.0000 0.0000
vt 0.9901 0.6535
vt 0.9793 0.0000
vt 0.9793 0.6535
vt 0.9682 0.0000
vt 0.9682 0.6535
vt 0.9570 0.0000
vt 0.9570 0.6535
vt 0.9463 0.0000
vt 0.9463 0.6535
vt 0.9364 0.0000
vt 0.9364 0.6535
vt 0.9278 0.0000
vt 0.8483 0.6535
vt 0.8404 0.0000
vt 0.8483 0.0000
vt 0.8404 0.6535
vt 0.8310 0.0000
vt 0.8310 0.6535
vt 0.8207 0.0000
vt 0.8207 0.6535
vt 0.8097 0.0000
vt 0.8097 0.6535
vt 0.7985 0.0000
vt 0.7985 0.6535
vt 0.7875 0.0000
vt 0.7875 0.6535
vt 0.7771 0.0000
vt 0.7771 0.6535
vt 0.7678 0.0000
vt 0.8483 0.0000
vt 0.8569 0.6535
vt 0.8483 0.6535
vt 0.8569 0.0000
vt 0.8668 0.6535
vt 0.8668 0.0000
vt 0.8775 0.6535
vt 0.8775 0.0000
vt 0.8887 0.6535
vt 0.8887 0.0000
vt 0.8999 0.6535
vt 0.8999 0.0000
vt 0.9106 0.6535
vt 0.9106 0.0000
vt 0.9205 0.6535
vt 0.9205 0.0000
vt 0.9278 0.6535
vt 0.6794 0.0000
vt 0.6874 0.6535
vt 0.6794 0.6535
vt 0.6874 0.0000
vt 0.6967 0.6535
vt 0.5858 0.3816
vt 0.5961 0.3772
vt 0.5685 0.4700
vt 0.6967 0.0000
vt 0.7071 0.6535
vt 0.7071 0.0000
vt 0.6383 0.6006
vt 0.6279 0.6050
vt 0.6383 0.4977
vt 0.7491 0.6535
vt 0.7693 1.0000
vt 0.7491 1.0000
vt 0.7693 0.6535
vt 0.7891 1.0000
vt 0.7891 0.6535
vt 0.8078 1.0000
vt 0.8078 0.6535
vt 0.8246 1.0000
vt 0.3397 0.3749
vt 0.6794 0.1328
vt 0.6794 0.3749
vt 0.3397 0.1328
vt 0.6794 0.1145
vt 0.3397 0.1145
vt 0.6794 0.0948
vt 0.3397 0.0948
vt 0.6794 0.0743
vt 0.3397 0.0743
vt 0.6794 0.0537
vt 0.3397 0.0537
vt 0.6794 0.0340
vt 0.3397 0.0340
vt 0.6794 0.0159
vt 0.3397 0.0159
vt 0.6794 0.0000
vt 0.4106 0.3749
vt 0.4249 0.7214
vt 0.4106 0.7214
vt 0.4249 0.3749
vt 0.4417 0.7214
vt 0.4417 0.3749
vt 0.4604 0.7214
vt 0.4604 0.3749
vt 0.4803 0.7214
vt 0.4803 0.3749
vt 0.5005 0.7214
vt 0.5005 0.3749
vt 0.5203 0.7214
vt 0.5203 0.3749
vt 0.5390 0.7214
vt 0.5390 0.3749
vt 0.5558 0.7214
vt 0.3397 0.0000
vt 0.0000 0.0159
vt 0.0000 0.0000
vt 0.3397 0.0159
vt 0.0000 0.0340
vt 0.3397 0.0340
vt 0.0000 0.0537
vt 0.3397 0.0537
vt 0.0000 0.0743
vt 0.3397 0.0743
vt 0.0000 0.0948
vt 0.3397 0.0948
vt 0.0000 0.1145
vt 0.3397 0.1145
vt 0.0000 0.1328
vt 0.3397 0.1328
vt 0.0000 0.3749
vt 0.6794 0.6535
vt 0.6937 1.0000
vt 0.6794 1.0000
vt 0.6937 0.6535
vt 0.7105 1.0000
vt 0.2053 0.4693
vt 0.2053 0.4900
vt 0.0039 0.4491
vt 0.7292 0.6535
vt 0.7292 1.0000
vt 0.3989 0.4300
vt 0.4067 0.4491
vt 0.2093 0.4491
vt 0.7678 0.0000
vt 0.9278 0.6535
vt 0.7678 0.6535
vt 0.9278 0.0000
vt 0.6661 0.4159
vt 0.6683 0.4272
vt 0.6618 0.4604
vt 0.6683 0.4386
vt 0.6661 0.4498
vt 0.6556 0.4699
vt 0.6476 0.4780
vt 0.6397 0.4845
vt 0.6294 0.4889
vt 0.6184 0.4911
vt 0.6071 0.4911
vt 0.5961 0.4889
vt 0.5858 0.4845
vt 0.5765 0.4781
vt 0.5623 0.4605
vt 0.5765 0.3879
vt 0.5580 0.4500
vt 0.5558 0.4387
vt 0.5623 0.4055
vt 0.5558 0.4273
vt 0.5580 0.4161
vt 0.5685 0.3960
vt 0.6071 0.3749
vt 0.6184 0.3749
vt 0.6294 0.3772
vt 0.6556 0.3959
vt 0.6397 0.3816
vt 0.6491 0.3879
vt 0.6618 0.4054
vt 0.5580 0.5660
vt 0.5558 0.5548
vt 0.5558 0.5433
vt 0.5580 0.5321
vt 0.5623 0.5215
vt 0.5685 0.5120
vt 0.5685 0.5861
vt 0.5750 0.5041
vt 0.5843 0.4977
vt 0.5947 0.4933
vt 0.6057 0.4911
vt 0.6169 0.4911
vt 0.6279 0.4933
vt 0.6476 0.5041
vt 0.6618 0.5767
vt 0.6556 0.5122
vt 0.6618 0.5217
vt 0.6661 0.5322
vt 0.6683 0.5435
vt 0.6683 0.5549
vt 0.6661 0.5661
vt 0.6556 0.5862
vt 0.6476 0.5943
vt 0.6169 0.6073
vt 0.6057 0.6073
vt 0.5947 0.6050
vt 0.5765 0.5941
vt 0.5843 0.6006
vt 0.5623 0.5765
vt 0.8246 0.6535
vt 0.3397 0.0000
vt 0.5558 0.3749
vt 0.3397 0.3749
vt 0.7105 0.6535
vt 0.1109 0.8054
vt 0.0910 0.8094
vt 0.0323 0.7975
vt 0.0708 0.8094
vt 0.0510 0.8054
vt 0.0155 0.7860
vt 0.0117 0.5292
vt 0.0039 0.5102
vt 0.1824 0.5464
vt 0.0012 0.7715
vt 0.1464 0.7860
vt 0.1295 0.7975
vt 0.2014 0.5102
vt 0.0000 0.4899
vt 0.0000 0.4693
vt 0.1936 0.5292
vt 0.0117 0.4300
vt 0.0229 0.4129
vt 0.1936 0.4300
vt 0.0372 0.3983
vt 0.0540 0.3869
vt 0.1513 0.3869
vt 0.0727 0.3790
vt 0.0925 0.3749
vt 0.1128 0.3749
vt 0.1326 0.3790
vt 0.1681 0.3983
vt 0.1824 0.4129
vt 0.2014 0.4491
vt 0.3597 0.8054
vt 0.3398 0.8094
vt 0.3196 0.8094
vt 0.2998 0.8054
vt 0.2811 0.7975
vt 0.3951 0.7860
vt 0.2282 0.5464
vt 0.2170 0.5292
vt 0.3989 0.5292
vt 0.2093 0.5102
vt 0.2053 0.4900
vt 0.4106 0.4899
vt 0.2053 0.4693
vt 0.2170 0.4300
vt 0.2282 0.4129
vt 0.3734 0.3983
vt 0.2425 0.3983
vt 0.2593 0.3869
vt 0.2780 0.3790
vt 0.2979 0.3749
vt 0.3181 0.3749
vt 0.3379 0.3790
vt 0.3566 0.3869
vt 0.3877 0.4129
vt 0.4106 0.4693
vt 0.4067 0.5102
vt 0.4094 0.7715
vt 0.2643 0.7860
vt 0.3783 0.7975
vn 0.0000 -0.0364 -0.9993
vn 0.0000 -0.2384 -0.9712
vn 0.0000 -0.4286 -0.9035
vn 0.0000 -0.5992 -0.8006
vn 0.0000 -0.6809 -0.7324
vn 0.0000 -0.8581 -0.5134
vn 0.0000 -0.9398 -0.3419
vn 0.0000 -0.9872 -0.1595
vn 0.0000 -0.9996 0.0279
vn 0.0000 -0.9766 0.2149
vn 0.0000 -0.9184 0.3957
vn 0.0000 -0.8255 0.5645
vn 0.0000 -0.6996 0.7146
vn 0.0000 -0.5441 0.8390
vn 0.0000 -0.3644 0.9312
vn 0.0000 -0.1678 0.9858
vn 0.0000 0.0364 0.9993
vn 0.0000 0.2384 0.9712
vn 0.0000 0.4287 0.9034
vn 0.0000 0.5992 0.8006
vn 0.0000 0.7438 0.6684
vn 0.0000 0.8581 0.5134
vn 0.0000 0.9398 0.3419
vn 0.0000 0.9872 0.1595
vn 0.0000 0.9996 -0.0279
vn 0.0000 0.9766 -0.2149
vn 0.0000 0.9184 -0.3957
vn 0.0000 0.7716 -0.6361
vn 0.0000 0.6996 -0.7145
vn 0.0000 0.5441 -0.8390
vn 1.0000 0.0000 0.0000
vn 0.0000 0.3644 -0.9312
vn 0.0000 0.1679 -0.9858
vn -1.0000 0.0000 0.0000
vn 0.0000 -0.0363 -0.9993
vn 0.0000 -0.4287 -0.9035
vn 0.0000 -0.9931 -0.1176
vn 0.0000 -0.9398 -0.3418
vn 0.0000 -0.9766 0.2148
vn 0.0000 -0.8254 0.5645
vn 0.0000 -0.1679 0.9858
vn 0.0000 0.0363 0.9993
vn 0.0000 0.4287 0.9035
vn 0.0000 0.7437 0.6685
vn 0.0000 0.8581 0.5135
vn 0.0000 0.9996 -0.0278
vn 0.0000 0.9767 -0.2148
vn 0.0000 0.9999 0.0145
vn 0.0000 0.6996 -0.7146
vn 0.0000 -0.4287 -0.9034
vn 0.0000 -0.6808 -0.7324
vn 0.0000 -0.9398 -0.3417
vn -0.0000 -0.9872 -0.1596
vn 0.0000 -0.9996 0.0278
vn 0.0000 -0.9767 0.2148
vn 0.0000 -0.9183 0.3958
vn 0.0000 0.8582 0.5133
vn 0.0000 0.9398 0.3418
vn 0.0000 0.9183 -0.3958
vn 0.0000 0.7715 -0.6363
vn 0.0000 0.9398 0.3417
vn 0.0000 0.9766 -0.2148
vn 0.0000 0.9184 -0.3958
s off
f 2/1/1 3/2/1 1/3/1
f 4/4/2 5/5/2 3/2/2
f 6/6/3 7/7/3 5/5/3
f 8/8/4 9/9/4 7/7/4
f 10/10/5 11/11/5 9/9/5
f 12/12/6 13/13/6 11/14/6
f 14/15/7 15/16/7 13/13/7
f 16/17/8 17/18/8 15/16/8
f 18/19/9 19/20/9 17/18/9
f 20/21/10 21/22/10 19/20/10
f 22/23/11 23/24/11 21/22/11
f 24/25/12 25/26/12 23/24/12
f 26/27/13 27/28/13 25/29/13
f 28/30/14 29/31/14 27/28/14
f 30/32/15 31/33/15 29/31/15
f 32/34/16 33/35/16 31/33/16
f 34/36/17 35/37/17 33/35/17
f 36/38/18 37/39/18 35/37/18
f 38/40/19 39/41/19 37/39/19
f 40/42/20 41/43/20 39/41/20
f 42/44/21 43/45/21 41/46/21
f 44/47/22 45/48/22 43/45/22
f 46/49/23 47/50/23 45/48/23
f 48/51/24 49/52/24 47/50/24
f 50/53/25 51/54/25 49/52/25
f 52/55/26 53/56/26 51/54/26
f 54/57/27 55/58/27 53/56/27
f 56/59/28 57/60/28 55/58/28
f 58/61/29 59/62/29 57/63/29
f 60/64/30 61/65/30 59/62/30
f 24/66/31 22/67/31 42/68/31
f 62/69/32 63/70/32 61/65/32
f 64/71/33 1/3/33 63/70/33
f 45/72/34 47/73/34 23/74/34
f 66/75/35 67/76/35 65/77/35
f 68/78/2 69/79/2 67/76/2
f 70/80/36 71/81/36 69/79/36
f 72/82/4 73/83/4 71/81/4
f 74/84/37 75/85/37 73/86/37
f 76/87/6 77/88/6 75/85/6
f 78/89/38 79/90/38 77/88/38
f 80/91/8 81/92/8 79/90/8
f 82/93/9 83/94/9 81/92/9
f 84/95/39 85/96/39 83/94/39
f 86/97/11 87/98/11 85/96/11
f 88/99/40 89/100/40 87/98/40
f 90/101/13 91/102/13 89/103/13
f 92/104/14 93/105/14 91/102/14
f 94/106/15 95/107/15 93/105/15
f 96/108/41 97/109/41 95/107/41
f 98/110/42 99/111/42 97/109/42
f 100/112/18 101/113/18 99/111/18
f 102/114/43 103/115/43 101/113/43
f 104/116/20 105/117/20 103/115/20
f 106/118/44 107/119/44 105/120/44
f 108/121/45 109/122/45 107/119/45
f 110/123/23 111/124/23 109/122/23
f 112/125/24 113/126/24 111/124/24
f 114/127/46 115/128/46 113/126/46
f 116/129/47 117/130/47 115/128/47
f 118/131/27 119/132/27 117/130/27
f 120/133/48 121/134/48 119/132/48
f 122/135/49 123/136/49 121/137/49
f 124/138/30 125/139/30 123/136/30
f 84/140/31 82/141/31 112/142/31
f 125/139/32 128/143/32 127/144/32
f 128/143/33 65/77/33 127/144/33
f 109/145/34 111/146/34 85/147/34
f 2/1/1 4/4/1 3/2/1
f 4/4/2 6/6/2 5/5/2
f 6/6/50 8/8/50 7/7/50
f 8/8/4 10/10/4 9/9/4
f 10/10/51 12/148/51 11/11/51
f 12/12/6 14/15/6 13/13/6
f 14/15/52 16/17/52 15/16/52
f 16/17/53 18/19/53 17/18/53
f 18/19/54 20/21/54 19/20/54
f 20/21/55 22/23/55 21/22/55
f 22/23/56 24/25/56 23/24/56
f 24/25/12 26/149/12 25/26/12
f 26/27/13 28/30/13 27/28/13
f 28/30/14 30/32/14 29/31/14
f 30/32/15 32/34/15 31/33/15
f 32/34/41 34/36/41 33/35/41
f 34/36/17 36/38/17 35/37/17
f 36/38/18 38/40/18 37/39/18
f 38/40/43 40/42/43 39/41/43
f 40/42/20 42/150/20 41/43/20
f 42/44/44 44/47/44 43/45/44
f 44/47/57 46/49/57 45/48/57
f 46/49/58 48/51/58 47/50/58
f 48/51/24 50/53/24 49/52/24
f 50/53/46 52/55/46 51/54/46
f 52/55/47 54/57/47 53/56/47
f 54/57/59 56/59/59 55/58/59
f 56/59/60 58/151/60 57/60/60
f 58/61/49 60/64/49 59/62/49
f 60/64/30 62/69/30 61/65/30
f 6/152/31 4/153/31 62/154/31
f 2/155/31 64/156/31 62/154/31
f 62/154/31 60/157/31 6/152/31
f 58/158/31 56/159/31 54/160/31
f 54/160/31 52/161/31 58/158/31
f 50/162/31 48/163/31 22/67/31
f 46/164/31 44/165/31 22/67/31
f 42/68/31 40/166/31 26/167/31
f 38/168/31 36/169/31 30/170/31
f 34/171/31 32/172/31 30/170/31
f 30/170/31 28/173/31 38/168/31
f 26/167/31 24/66/31 42/68/31
f 22/67/31 20/174/31 50/162/31
f 18/175/31 16/176/31 10/177/31
f 14/178/31 12/179/31 10/177/31
f 10/177/31 8/180/31 58/158/31
f 4/153/31 2/155/31 62/154/31
f 60/157/31 58/158/31 6/152/31
f 52/161/31 50/162/31 18/175/31
f 44/165/31 42/68/31 22/67/31
f 36/169/31 34/171/31 30/170/31
f 28/173/31 26/167/31 38/168/31
f 20/174/31 18/175/31 50/162/31
f 14/178/31 10/177/31 16/176/31
f 6/152/31 58/158/31 8/180/31
f 48/163/31 46/164/31 22/67/31
f 38/168/31 26/167/31 40/166/31
f 18/175/31 10/177/31 52/161/31
f 58/158/31 52/161/31 10/177/31
f 62/69/32 64/71/32 63/70/32
f 64/71/33 2/1/33 1/3/33
f 63/181/34 1/182/34 3/183/34
f 3/183/34 5/184/34 63/181/34
f 7/185/34 9/186/34 59/187/34
f 11/188/34 13/189/34 9/186/34
f 15/190/34 17/191/34 47/73/34
f 19/192/34 21/193/34 47/73/34
f 23/74/34 25/194/34 39/195/34
f 27/196/34 29/197/34 31/198/34
f 31/198/34 33/199/34 35/200/34
f 35/200/34 37/201/34 31/198/34
f 39/195/34 41/202/34 23/74/34
f 43/203/34 45/72/34 23/74/34
f 47/73/34 49/204/34 15/190/34
f 51/205/34 53/206/34 57/207/34
f 55/208/34 57/207/34 53/206/34
f 59/187/34 61/209/34 63/181/34
f 63/181/34 5/184/34 7/185/34
f 9/186/34 13/189/34 15/190/34
f 17/191/34 19/192/34 47/73/34
f 25/194/34 27/196/34 39/195/34
f 31/198/34 37/201/34 39/195/34
f 41/202/34 43/203/34 23/74/34
f 49/204/34 51/205/34 57/207/34
f 57/207/34 15/190/34 49/204/34
f 63/181/34 7/185/34 59/187/34
f 21/193/34 23/74/34 47/73/34
f 31/198/34 39/195/34 27/196/34
f 57/207/34 9/186/34 15/190/34
f 9/186/34 57/207/34 59/187/34
f 66/75/35 68/78/35 67/76/35
f 68/78/2 70/80/2 69/79/2
f 70/80/36 72/82/36 71/81/36
f 72/82/4 74/210/4 73/83/4
f 74/84/37 76/87/37 75/85/37
f 76/87/6 78/89/6 77/88/6
f 78/89/52 80/91/52 79/90/52
f 80/91/8 82/93/8 81/92/8
f 82/93/54 84/95/54 83/94/54
f 84/95/55 86/97/55 85/96/55
f 86/97/11 88/99/11 87/98/11
f 88/99/40 90/211/40 89/100/40
f 90/101/13 92/104/13 91/102/13
f 92/104/14 94/106/14 93/105/14
f 94/106/15 96/108/15 95/107/15
f 96/108/41 98/110/41 97/109/41
f 98/110/42 100/112/42 99/111/42
f 100/112/18 102/114/18 101/113/18
f 102/114/19 104/116/19 103/115/19
f 104/116/20 106/212/20 105/117/20
f 106/118/44 108/121/44 107/119/44
f 108/121/57 110/123/57 109/122/57
f 110/123/61 112/125/61 111/124/61
f 112/125/24 114/127/24 113/126/24
f 114/127/25 116/129/25 115/128/25
f 116/129/62 118/131/62 117/130/62
f 118/131/63 120/133/63 119/132/63
f 120/133/48 122/213/48 121/134/48
f 122/135/49 124/138/49 123/136/49
f 124/138/30 126/214/30 125/139/30
f 70/215/31 68/216/31 126/217/31
f 66/218/31 128/219/31 126/217/31
f 126/217/31 124/220/31 70/215/31
f 120/221/31 118/222/31 76/223/31
f 124/220/31 122/224/31 70/215/31
f 68/216/31 66/218/31 126/217/31
f 74/225/31 72/226/31 122/224/31
f 80/227/31 116/228/31 114/229/31
f 76/223/31 74/225/31 120/221/31
f 70/215/31 122/224/31 72/226/31
f 118/222/31 78/230/31 76/223/31
f 114/229/31 112/142/31 82/141/31
f 110/231/31 108/232/31 88/233/31
f 106/234/31 104/235/31 94/236/31
f 102/237/31 100/238/31 98/239/31
f 98/239/31 96/240/31 102/237/31
f 94/236/31 92/241/31 106/234/31
f 90/242/31 88/233/31 108/232/31
f 86/243/31 84/140/31 110/231/31
f 82/141/31 80/227/31 114/229/31
f 74/225/31 122/224/31 120/221/31
f 116/228/31 78/230/31 118/222/31
f 108/232/31 106/234/31 90/242/31
f 102/237/31 96/240/31 94/236/31
f 92/241/31 90/242/31 106/234/31
f 84/140/31 112/142/31 110/231/31
f 116/228/31 80/227/31 78/230/31
f 104/235/31 102/237/31 94/236/31
f 88/233/31 86/243/31 110/231/31
f 125/139/32 126/214/32 128/143/32
f 128/143/33 66/75/33 65/77/33
f 127/244/34 65/245/34 67/246/34
f 67/246/34 69/247/34 127/244/34
f 71/248/34 123/249/34 127/244/34
f 75/250/34 77/251/34 119/252/34
f 79/253/34 81/254/34 115/255/34
f 83/256/34 85/147/34 111/146/34
f 87/257/34 89/258/34 105/259/34
f 91/260/34 93/261/34 95/262/34
f 95/262/34 97/263/34 99/264/34
f 99/264/34 101/265/34 95/262/34
f 103/266/34 105/259/34 89/258/34
f 107/267/34 109/145/34 87/257/34
f 111/146/34 113/268/34 83/256/34
f 115/255/34 117/269/34 79/253/34
f 119/252/34 121/270/34 73/271/34
f 123/249/34 125/272/34 127/244/34
f 127/244/34 69/247/34 71/248/34
f 77/251/34 117/269/34 119/252/34
f 71/248/34 73/271/34 123/249/34
f 121/270/34 123/249/34 73/271/34
f 113/268/34 81/254/34 83/256/34
f 105/259/34 107/267/34 87/257/34
f 95/262/34 101/265/34 103/266/34
f 89/258/34 91/260/34 103/266/34
f 79/253/34 117/269/34 77/251/34
f 119/252/34 73/271/34 75/250/34
f 109/145/34 85/147/34 87/257/34
f 91/260/34 95/262/34 103/266/34
f 81/254/34 113/268/34 115/255/34
